<svg id="Grupo_4233" data-name="Grupo 4233" xmlns="http://www.w3.org/2000/svg" width="31.179" height="28.738" viewBox="0 0 31.179 28.738">
  <path id="Trazado_10650" data-name="Trazado 10650" d="M18.4,2.009A3.357,3.357,0,0,0,15.589,0a3.357,3.357,0,0,0-2.812,2.009L.611,23.747a3.454,3.454,0,0,0-.243,3.491,3.483,3.483,0,0,0,3.191,1.5h24.06a3.482,3.482,0,0,0,3.191-1.5,3.452,3.452,0,0,0-.243-3.49Z" transform="translate(0)" fill="#ffc107"/>
  <path id="Trazado_10651" data-name="Trazado 10651" d="M35.96,53.9a1.6,1.6,0,1,0,1.6,1.6,1.6,1.6,0,0,0-1.6-1.6" transform="translate(-20.371 -31.961)" fill="#fff"/>
  <path id="Trazado_10652" data-name="Trazado 10652" d="M35.7,29.456c.588,0,1.111-.721,1.163-1.6l.613-10.428a1.5,1.5,0,0,0-1.509-1.6h-.535a1.5,1.5,0,0,0-1.509,1.6l.613,10.428c.052.88.575,1.6,1.163,1.6" transform="translate(-20.115 -9.384)" fill="#fff"/>
</svg>
