<svg id="edit" xmlns="http://www.w3.org/2000/svg" width="19.347" height="19.347" viewBox="0 0 19.347 19.347">
  <path id="Trazado_3225" data-name="Trazado 3225" d="M16.008.758,6.18,10.586A4,4,0,0,0,5,13.436v1.083a.806.806,0,0,0,.806.806H6.889a4,4,0,0,0,2.85-1.18l9.828-9.828a2.519,2.519,0,0,0,0-3.558,2.575,2.575,0,0,0-3.558,0Zm2.418,2.418L8.6,13a2.434,2.434,0,0,1-1.71.708H6.612v-.276a2.434,2.434,0,0,1,.708-1.71L17.148,1.9a.925.925,0,0,1,1.278,0,.905.905,0,0,1,0,1.278Z" transform="translate(-0.969 -0.009)" fill="#fafcfc"/>
  <path id="Trazado_3226" data-name="Trazado 3226" d="M18.541,7.238a.806.806,0,0,0-.806.806v4.047H14.51a2.418,2.418,0,0,0-2.418,2.418v3.224H4.031a2.418,2.418,0,0,1-2.418-2.418V4.031A2.418,2.418,0,0,1,4.031,1.612h7.289a.806.806,0,0,0,0-1.612H4.031A4.035,4.035,0,0,0,0,4.031V15.316a4.035,4.035,0,0,0,4.031,4.031h9.144a4,4,0,0,0,2.85-1.18l2.141-2.143a4,4,0,0,0,1.181-2.85V8.044A.806.806,0,0,0,18.541,7.238Zm-3.656,9.789a2.4,2.4,0,0,1-1.181.645V14.51a.806.806,0,0,1,.806-.806h3.164a2.431,2.431,0,0,1-.645,1.18Z" fill="#fafcfc"/>
</svg>
