<svg id="exclamacion" xmlns="http://www.w3.org/2000/svg" width="52" height="52" viewBox="0 0 52 52">
  <path id="Trazado_10631" data-name="Trazado 10631" d="M26,0A26,26,0,1,0,52,26,26,26,0,0,0,26,0Zm0,47.667A21.667,21.667,0,1,1,47.667,26,21.667,21.667,0,0,1,26,47.667Z" fill="#7A7E83"/>
  <path id="Trazado_10632" data-name="Trazado 10632" d="M13.167,5A2.167,2.167,0,0,0,11,7.167V24.5a2.167,2.167,0,0,0,4.333,0V7.167A2.167,2.167,0,0,0,13.167,5Z" transform="translate(12.833 5.833)" fill="#7A7E83"/>
  <rect id="Rectángulo_2473" data-name="Rectángulo 2473" width="4" height="4" rx="1" transform="translate(24 36.933)" fill="#7A7E83"/>
</svg>
