<svg xmlns="http://www.w3.org/2000/svg" width="441.286" height="62.302" viewBox="0 0 441.286 62.302">
  <g id="Grupo_4389" data-name="Grupo 4389" transform="translate(-274 -375.698)">
    <path id="Trazado_10814" data-name="Trazado 10814" d="M15.237,47.418a42.752,42.752,0,0,1-5.139-.279A27.639,27.639,0,0,1,5.853,46.3a23.471,23.471,0,0,1-3.8-1.452v-8.6a18.242,18.242,0,0,0,5.809,3.128,19.752,19.752,0,0,0,6.144,1.061,6.72,6.72,0,0,0,3.938-.978,3.426,3.426,0,0,0,1.369-2.988,2.873,2.873,0,0,0-1.257-2.43,12.281,12.281,0,0,0-3.324-1.62q-2.067-.7-4.636-1.592a21.091,21.091,0,0,1-3.184-1.285A11.019,11.019,0,0,1,4.121,27.56a8.8,8.8,0,0,1-1.955-2.933,10.987,10.987,0,0,1-.726-4.245,11.913,11.913,0,0,1,.838-4.413,10.575,10.575,0,0,1,2.6-3.8,12.523,12.523,0,0,1,4.5-2.653A19.1,19.1,0,0,1,15.8,8.54a26.081,26.081,0,0,1,4.05.279,21.831,21.831,0,0,1,3.379.81A24.293,24.293,0,0,1,26.521,11v8.714a21.119,21.119,0,0,0-2.877-1.983,19.9,19.9,0,0,0-3.324-1.536,11.829,11.829,0,0,0-3.631-.67,10.109,10.109,0,0,0-3.072.335,4.478,4.478,0,0,0-2.179,1.257,3.166,3.166,0,0,0-.782,2.206,3.212,3.212,0,0,0,.95,2.458,7.308,7.308,0,0,0,2.625,1.48q1.676.587,3.743,1.257A39.624,39.624,0,0,1,22.192,26a12.964,12.964,0,0,1,3.379,2.039,8.2,8.2,0,0,1,2.234,3.016,10.693,10.693,0,0,1,.782,4.3,12.206,12.206,0,0,1-1.564,6.117A11.1,11.1,0,0,1,22.5,45.826,15.169,15.169,0,0,1,15.237,47.418Zm20.277-.782V9.378h9.049V46.636Zm34.018.726q-8.937,0-13.658-4.72t-4.72-14.607q0-9.608,4.525-14.551T69.532,8.54a25.467,25.467,0,0,1,5.977.726,33.059,33.059,0,0,1,5.865,2.011v7.876a22.677,22.677,0,0,0-5.586-2.737,16.9,16.9,0,0,0-5.027-.838A11.97,11.97,0,0,0,65.2,16.751a7.663,7.663,0,0,0-3.463,3.91,18.674,18.674,0,0,0-1.2,7.373,18.251,18.251,0,0,0,1.2,7.318,7.426,7.426,0,0,0,3.575,3.826,13.37,13.37,0,0,0,5.837,1.145,16.65,16.65,0,0,0,4.692-.782,21.412,21.412,0,0,0,5.53-2.681v7.876a21.694,21.694,0,0,1-3.547,1.369,31.852,31.852,0,0,1-4.134.922A27.024,27.024,0,0,1,69.532,47.362Zm35.861.056a20.767,20.767,0,0,1-9.608-2.095,14.617,14.617,0,0,1-6.34-6.4,23.275,23.275,0,0,1-2.262-10.892q0-9.552,4.8-14.467t13.406-4.916a20.94,20.94,0,0,1,9.636,2.095,14.488,14.488,0,0,1,6.34,6.34A23.31,23.31,0,0,1,123.6,27.979q0,9.608-4.776,14.523T105.394,47.418Zm0-7.429a9.335,9.335,0,0,0,4.832-1.173,7.326,7.326,0,0,0,3.016-3.826,19.687,19.687,0,0,0,1.033-7.01,19.644,19.644,0,0,0-1.033-7.038,7.182,7.182,0,0,0-3.016-3.77,9.517,9.517,0,0,0-4.832-1.145,9.184,9.184,0,0,0-4.8,1.173A7.378,7.378,0,0,0,97.6,21a19.839,19.839,0,0,0-1.033,7.094A19.408,19.408,0,0,0,97.6,35.1a7.232,7.232,0,0,0,2.988,3.743A9.362,9.362,0,0,0,105.394,39.989Zm25.137,6.647V9.378h25.36V16.36H139.579v8.882h14.076v7.094H139.579v14.3Zm25.807,0L170.413,9.378H180.3l13.183,37.258h-9.273L172.313,11.5l4.413-.391L164.883,46.636Zm7.932-8.044,1.843-6.647h16.925l.838,6.647Z" transform="translate(275.241 367.158)" fill="#fff"/>
    <path id="Trazado_10815" data-name="Trazado 10815" d="M5.761,2.921C2.577,2.921.734,4.615.734,6.794c0,2.048,1.3,3.091,4.729,3.78,2.03.41,2.681.8,2.681,1.471,0,.931-.857,1.434-2.439,1.434a3.868,3.868,0,0,1-3.8-2.011L.38,13.292c1.043,1.49,2.625,2.29,5.418,2.29,2.942,0,5.046-1.378,5.046-3.687,0-2.048-1.248-3.072-4.562-3.687-2.16-.391-2.83-.838-2.83-1.657,0-.875.782-1.527,2.327-1.527A3.309,3.309,0,0,1,9.094,7.017l1.769-1.732A5.83,5.83,0,0,0,5.761,2.921ZM14.4,4.745c1.061,0,1.583-.447,1.583-1.359S15.462,2.008,14.4,2.008s-1.583.465-1.583,1.378S13.339,4.745,14.4,4.745Zm1.266,1.341H13.116V15.4h2.551Zm6.5,9.5c2.774,0,4.245-1.21,4.245-2.886,0-1.545-1.005-2.365-3.724-2.9-1.564-.317-2.03-.633-2.03-1.136,0-.484.633-.894,1.676-.894a2.6,2.6,0,0,1,2.532,1.452l1.583-1.341C25.591,6.533,24.437,5.9,22.3,5.9c-2.756,0-4.189,1.49-4.189,3,0,1.545.968,2.439,3.873,3.016,1.359.279,1.862.54,1.862.968,0,.5-.614.838-1.713.838a2.723,2.723,0,0,1-2.793-1.452l-1.49,1.527C18.7,15.061,20.247,15.582,22.165,15.582Zm12.457-2.458a2.052,2.052,0,0,1-1.434.521A1.143,1.143,0,0,1,31.9,12.361V7.985h3.016v-1.9H31.9V3.237l-2.551.708V6.086H27.658v1.9h1.694V12.77c0,2.048,1.266,2.812,3.109,2.812a4.194,4.194,0,0,0,2.551-.763ZM45.5,10.7c0-3.054-1.583-4.8-4.487-4.8-3,0-4.692,1.787-4.692,4.841s1.75,4.841,4.841,4.841c2.1,0,3.538-.8,4.134-2.29l-2.085-.763a1.933,1.933,0,0,1-2.048,1.154,2.179,2.179,0,0,1-2.327-1.974h6.591A8.8,8.8,0,0,0,45.5,10.7ZM40.989,7.78c1.173,0,1.955.745,2.16,2.141H38.811C39.016,8.507,39.761,7.78,40.989,7.78ZM59.479,5.9A3.407,3.407,0,0,0,56.313,7.78,3.084,3.084,0,0,0,53.278,5.9a3.286,3.286,0,0,0-3.072,1.825l-.093-1.639h-2.29V15.4h2.551V10.462c0-1.825,1.061-2.551,2.048-2.551.95,0,1.62.521,1.62,1.881v5.6h2.551V10.387c0-1.62.912-2.476,2.048-2.476.931,0,1.6.521,1.6,1.881v5.6h2.532l.019-6.107A3.117,3.117,0,0,0,59.479,5.9ZM74.114,13.85c-.484,0-.689-.223-.689-.708V9.326c0-2.309-1.639-3.426-4.227-3.426-2.272,0-3.668,1.005-4.059,2.588l2.03.857A1.931,1.931,0,0,1,69.31,7.762a1.478,1.478,0,0,1,1.583,1.62v.447l-2.234.428c-2.5.465-3.631,1.49-3.631,2.942,0,1.564,1.117,2.383,2.886,2.383a3.653,3.653,0,0,0,3.3-1.4c.261,1.005,1.024,1.4,2.141,1.4a2.7,2.7,0,0,0,1.21-.261l.186-1.545A2.272,2.272,0,0,1,74.114,13.85Zm-5.4,0c-.67,0-1.061-.317-1.061-.912,0-.614.428-.912,1.248-1.1l1.992-.447v.968C70.893,13.348,69.682,13.85,68.714,13.85ZM88.563,2.008V7.594a3.144,3.144,0,0,0-2.9-1.694c-2.458,0-3.985,1.806-3.985,4.86,0,3.035,1.508,4.822,3.985,4.822A3.3,3.3,0,0,0,88.73,13.72l.112,1.676h2.272V2.008ZM86.421,13.627c-1.359,0-2.179-.987-2.179-2.886s.819-2.886,2.179-2.886c1.229,0,2.011.857,2.141,2.346v1.08C88.432,12.808,87.632,13.627,86.421,13.627ZM102.7,10.7c0-3.054-1.583-4.8-4.487-4.8-3,0-4.692,1.787-4.692,4.841s1.75,4.841,4.841,4.841c2.1,0,3.538-.8,4.134-2.29l-2.085-.763a1.933,1.933,0,0,1-2.048,1.154,2.179,2.179,0,0,1-2.327-1.974h6.591A8.806,8.806,0,0,0,102.7,10.7ZM98.189,7.78c1.173,0,1.955.745,2.16,2.141H96.011C96.215,8.507,96.96,7.78,98.189,7.78Zm14-3.035c1.061,0,1.583-.447,1.583-1.359s-.521-1.378-1.583-1.378-1.583.465-1.583,1.378S111.13,4.745,112.191,4.745Zm1.266,1.341h-2.551V15.4h2.551Zm8.435-.186a3.315,3.315,0,0,0-3.165,1.843l-.093-1.657h-2.29V15.4h2.551V10.48c0-1.862,1.061-2.57,2.141-2.57.968,0,1.657.521,1.657,2.123V15.4h2.551V9.289A3.11,3.11,0,0,0,121.892,5.9Zm9.2-.745c0-1.024.6-1.434,1.6-1.434A1.794,1.794,0,0,1,133.753,4l.354-1.694a3.358,3.358,0,0,0-1.936-.484c-2.085,0-3.519,1.043-3.519,3.147V6.086h-1.62v1.9h1.62V15.4H131.2V7.985h2.83v-1.9H131.09Zm8.77.745c-3,0-4.767,1.806-4.767,4.841s1.769,4.841,4.767,4.841,4.767-1.806,4.767-4.841S142.858,5.9,139.86,5.9Zm0,1.9c1.434,0,2.216.968,2.216,2.942s-.782,2.942-2.216,2.942-2.216-.968-2.216-2.942S138.426,7.8,139.86,7.8Zm12.419-1.9a2.867,2.867,0,0,0-2.886,2.011l-.168-1.825H147.01V15.4h2.551V10.573a2.313,2.313,0,0,1,3.407-2.234l.317-2.234A2.133,2.133,0,0,0,152.279,5.9Zm14.43,0a3.407,3.407,0,0,0-3.165,1.881A3.084,3.084,0,0,0,160.509,5.9a3.286,3.286,0,0,0-3.072,1.825l-.093-1.639h-2.29V15.4H157.6V10.462c0-1.825,1.061-2.551,2.048-2.551.95,0,1.62.521,1.62,1.881v5.6h2.551V10.387c0-1.62.912-2.476,2.048-2.476.931,0,1.6.521,1.6,1.881v5.6h2.532l.019-6.107A3.117,3.117,0,0,0,166.71,5.9Zm14.635,7.951c-.484,0-.689-.223-.689-.708V9.326c0-2.309-1.639-3.426-4.227-3.426-2.272,0-3.668,1.005-4.059,2.588l2.03.857a1.931,1.931,0,0,1,2.141-1.583,1.478,1.478,0,0,1,1.583,1.62v.447l-2.234.428c-2.5.465-3.631,1.49-3.631,2.942,0,1.564,1.117,2.383,2.886,2.383a3.653,3.653,0,0,0,3.3-1.4c.261,1.005,1.024,1.4,2.141,1.4a2.7,2.7,0,0,0,1.21-.261l.186-1.545A2.272,2.272,0,0,1,181.345,13.85Zm-5.4,0c-.67,0-1.061-.317-1.061-.912,0-.614.428-.912,1.248-1.1l1.992-.447v.968C178.123,13.348,176.913,13.85,175.945,13.85ZM187.936,5.9c-2.979,0-4.748,1.787-4.748,4.841s1.75,4.841,4.841,4.841c2.365,0,3.817-1.154,4.208-2.812l-2.309-.745a1.8,1.8,0,0,1-1.936,1.657c-1.378,0-2.253-.931-2.253-2.923,0-1.955.819-2.961,2.272-2.961.987,0,1.583.577,1.806,1.694l2.383-.857C191.753,7.11,190.561,5.9,187.936,5.9Zm7.8-1.154c1.061,0,1.583-.447,1.583-1.359s-.521-1.378-1.583-1.378-1.583.465-1.583,1.378S194.676,4.745,195.738,4.745ZM197,6.086h-2.551V15.4H197Zm7.224-4.506-1.3,3.165h1.9l1.862-3.165Zm-.056,4.32c-3,0-4.767,1.806-4.767,4.841s1.769,4.841,4.767,4.841,4.767-1.806,4.767-4.841S207.17,5.9,204.172,5.9Zm0,1.9c1.434,0,2.216.968,2.216,2.942s-.782,2.942-2.216,2.942-2.216-.968-2.216-2.942S202.739,7.8,204.172,7.8Zm12.7-1.9a3.315,3.315,0,0,0-3.165,1.843l-.093-1.657h-2.29V15.4h2.551V10.48c0-1.862,1.061-2.57,2.141-2.57.968,0,1.657.521,1.657,2.123V15.4h2.551V9.289A3.11,3.11,0,0,0,216.871,5.9ZM11.794,32.489l-2.365-.708A2.673,2.673,0,0,1,6.6,33.96c-2.067,0-3.277-1.508-3.277-4.227,0-2.737,1.285-4.227,3.333-4.227A2.429,2.429,0,0,1,9.3,27.573l2.327-.987c-.689-2.141-2.57-3.184-5.083-3.184C2.95,23.4.659,25.786.659,29.733s2.272,6.331,5.921,6.331A5.04,5.04,0,0,0,11.794,32.489ZM18.2,26.381c-3,0-4.767,1.806-4.767,4.841S15.2,36.064,18.2,36.064s4.767-1.806,4.767-4.841S21.2,26.381,18.2,26.381Zm0,1.9c1.434,0,2.216.968,2.216,2.942s-.782,2.942-2.216,2.942-2.216-.968-2.216-2.942S16.765,28.281,18.2,28.281ZM37,26.381a3.407,3.407,0,0,0-3.165,1.881A3.084,3.084,0,0,0,30.8,26.381a3.286,3.286,0,0,0-3.072,1.825l-.093-1.639h-2.29v9.31H27.9V30.943c0-1.825,1.061-2.551,2.048-2.551.95,0,1.62.521,1.62,1.881v5.6h2.551V30.869c0-1.62.912-2.476,2.048-2.476.931,0,1.6.521,1.6,1.881v5.6H40.3l.019-6.107A3.117,3.117,0,0,0,37,26.381Zm7.411-1.154c1.061,0,1.583-.447,1.583-1.359s-.521-1.378-1.583-1.378-1.583.465-1.583,1.378S43.354,25.227,44.416,25.227Zm1.266,1.341H43.131v9.31h2.551Zm6.5,9.5c2.774,0,4.245-1.21,4.245-2.886,0-1.545-1.005-2.365-3.724-2.9-1.564-.317-2.03-.633-2.03-1.136,0-.484.633-.894,1.676-.894A2.6,2.6,0,0,1,54.88,29.7l1.583-1.341c-.857-1.341-2.011-1.974-4.152-1.974-2.756,0-4.189,1.49-4.189,3,0,1.545.968,2.439,3.873,3.016,1.359.279,1.862.54,1.862.968,0,.5-.614.838-1.713.838a2.723,2.723,0,0,1-2.793-1.452l-1.49,1.527C48.717,35.542,50.262,36.064,52.18,36.064Zm14.97-1.732c-.484,0-.689-.223-.689-.708V29.807c0-2.309-1.639-3.426-4.227-3.426-2.272,0-3.668,1.005-4.059,2.588l2.03.857a1.931,1.931,0,0,1,2.141-1.583,1.478,1.478,0,0,1,1.583,1.62v.447l-2.234.428c-2.5.465-3.631,1.49-3.631,2.942,0,1.564,1.117,2.383,2.886,2.383a3.653,3.653,0,0,0,3.3-1.4c.261,1.005,1.024,1.4,2.141,1.4A2.7,2.7,0,0,0,67.6,35.8l.186-1.545A2.272,2.272,0,0,1,67.15,34.332Zm-5.4,0c-.67,0-1.061-.317-1.061-.912,0-.614.428-.912,1.248-1.1l1.992-.447v.968C63.929,33.829,62.719,34.332,61.75,34.332Zm13.034-7.951A2.867,2.867,0,0,0,71.9,28.392l-.168-1.825H69.515v9.31h2.551V31.055a2.313,2.313,0,0,1,3.407-2.234l.317-2.234A2.133,2.133,0,0,0,74.784,26.381Zm4.227-4.32-1.3,3.165h1.9l1.862-3.165Zm1.1,4.506H77.559v9.31h2.551Zm11.4,7.764c-.484,0-.689-.223-.689-.708V29.807c0-2.309-1.639-3.426-4.227-3.426-2.272,0-3.668,1.005-4.059,2.588l2.03.857A1.931,1.931,0,0,1,86.7,28.243a1.478,1.478,0,0,1,1.583,1.62v.447l-2.234.428c-2.5.465-3.631,1.49-3.631,2.942,0,1.564,1.117,2.383,2.886,2.383a3.653,3.653,0,0,0,3.3-1.4c.261,1.005,1.024,1.4,2.141,1.4a2.7,2.7,0,0,0,1.21-.261l.186-1.545A2.272,2.272,0,0,1,91.5,34.332Zm-5.4,0c-.67,0-1.061-.317-1.061-.912,0-.614.428-.912,1.248-1.1l1.992-.447v.968C88.283,33.829,87.073,34.332,86.1,34.332Zm11.377,1.732c2.774,0,4.245-1.21,4.245-2.886,0-1.545-1.005-2.365-3.724-2.9-1.564-.317-2.03-.633-2.03-1.136,0-.484.633-.894,1.676-.894a2.6,2.6,0,0,1,2.532,1.452l1.583-1.341c-.856-1.341-2.011-1.974-4.152-1.974-2.756,0-4.189,1.49-4.189,3,0,1.545.968,2.439,3.873,3.016,1.359.279,1.862.54,1.862.968,0,.5-.614.838-1.713.838a2.723,2.723,0,0,1-2.793-1.452l-1.49,1.527C94.018,35.542,95.564,36.064,97.482,36.064ZM116.287,22.49v5.586a3.144,3.144,0,0,0-2.9-1.694c-2.458,0-3.985,1.806-3.985,4.86,0,3.035,1.508,4.822,3.985,4.822a3.3,3.3,0,0,0,3.072-1.862l.112,1.676h2.272V22.49Zm-2.141,11.619c-1.359,0-2.179-.987-2.179-2.886s.819-2.886,2.179-2.886c1.229,0,2.011.857,2.141,2.346v1.08C116.157,33.289,115.356,34.109,114.146,34.109Zm16.274-2.923c0-3.054-1.583-4.8-4.487-4.8-3,0-4.692,1.787-4.692,4.841s1.75,4.841,4.841,4.841c2.1,0,3.538-.8,4.134-2.29l-2.085-.763a1.933,1.933,0,0,1-2.048,1.154,2.179,2.179,0,0,1-2.327-1.974h6.591A8.8,8.8,0,0,0,130.42,31.185Zm-4.506-2.923c1.173,0,1.955.745,2.16,2.141h-4.338C123.94,28.988,124.685,28.262,125.914,28.262Zm22.176-2.607V23.588h-9.2V35.877h2.57V30.85h5.232V28.765h-5.232V25.655Zm9.738,8.677c-.484,0-.689-.223-.689-.708V29.807c0-2.309-1.639-3.426-4.227-3.426-2.272,0-3.668,1.005-4.059,2.588l2.03.857a1.931,1.931,0,0,1,2.141-1.583,1.478,1.478,0,0,1,1.583,1.62v.447l-2.234.428c-2.5.465-3.631,1.49-3.631,2.942,0,1.564,1.117,2.383,2.886,2.383a3.653,3.653,0,0,0,3.3-1.4c.261,1.005,1.024,1.4,2.141,1.4a2.7,2.7,0,0,0,1.21-.261l.186-1.545A2.272,2.272,0,0,1,157.828,34.332Zm-5.4,0c-.67,0-1.061-.317-1.061-.912,0-.614.428-.912,1.248-1.1l1.992-.447v.968C154.607,33.829,153.4,34.332,152.428,34.332Zm19.42-7.951a3.407,3.407,0,0,0-3.165,1.881,3.084,3.084,0,0,0-3.035-1.881,3.286,3.286,0,0,0-3.072,1.825l-.093-1.639h-2.29v9.31h2.551V30.943c0-1.825,1.061-2.551,2.048-2.551.95,0,1.62.521,1.62,1.881v5.6h2.551V30.869c0-1.62.912-2.476,2.048-2.476.931,0,1.6.521,1.6,1.881v5.6h2.532l.019-6.107A3.117,3.117,0,0,0,171.849,26.381Zm7.411-1.154c1.061,0,1.583-.447,1.583-1.359s-.521-1.378-1.583-1.378-1.583.465-1.583,1.378S178.2,25.227,179.259,25.227Zm1.266,1.341h-2.551v9.31h2.551Zm5.4-4.078h-2.551v10.8c0,1.936.8,2.774,2.607,2.774a3.774,3.774,0,0,0,1.732-.391l.223-1.769a2.806,2.806,0,0,1-1.1.2c-.689,0-.912-.317-.912-1.192Zm4.9,2.737c1.061,0,1.583-.447,1.583-1.359s-.521-1.378-1.583-1.378-1.583.465-1.583,1.378S189.761,25.227,190.822,25.227Zm1.266,1.341h-2.551v9.31h2.551Zm11.4,7.764c-.484,0-.689-.223-.689-.708V29.807c0-2.309-1.639-3.426-4.227-3.426-2.272,0-3.668,1.005-4.059,2.588l2.03.857a1.931,1.931,0,0,1,2.141-1.583,1.478,1.478,0,0,1,1.583,1.62v.447l-2.234.428c-2.5.465-3.631,1.49-3.631,2.942,0,1.564,1.117,2.383,2.886,2.383a3.653,3.653,0,0,0,3.3-1.4c.261,1.005,1.024,1.4,2.141,1.4a2.7,2.7,0,0,0,1.21-.261l.186-1.545A2.272,2.272,0,0,1,203.483,34.332Zm-5.4,0c-.67,0-1.061-.317-1.061-.912,0-.614.428-.912,1.248-1.1l1.992-.447v.968C200.262,33.829,199.052,34.332,198.084,34.332Z" transform="translate(492.178 381.641)" fill="#fff"/>
    <path id="Trazado_10816" data-name="Trazado 10816" d="M0,0H441.286V7.448H0Z" transform="translate(274 430.552)" fill="#f79458"/>
  </g>
</svg>
