<svg xmlns="http://www.w3.org/2000/svg" width="19.585" height="19.585" viewBox="0 0 19.585 19.585">
  <path id="resistente-a-los-neumaticos" d="M9.792,4.08c-7.549.245-7.548,11.185,0,11.425C17.342,15.26,17.34,4.319,9.792,4.08Zm0,9.792a4.08,4.08,0,0,1,0-8.16A4.08,4.08,0,0,1,9.792,13.873Zm8.659-6.447a8.945,8.945,0,0,0-.861-2.074,1.637,1.637,0,0,0-.3-1.9L16.14,2.291a1.644,1.644,0,0,0-1.9-.3,7.671,7.671,0,0,0-2.078-.862A1.632,1.632,0,0,0,10.608,0H8.976a1.632,1.632,0,0,0-1.55,1.132,7.52,7.52,0,0,0-2.081.861,1.619,1.619,0,0,0-.745-.18,1.589,1.589,0,0,0-1.156.478L2.291,3.445a1.632,1.632,0,0,0-.3,1.9,9.071,9.071,0,0,0-.864,2.078A1.632,1.632,0,0,0,0,8.976v1.632a1.632,1.632,0,0,0,1.136,1.55A9.523,9.523,0,0,0,2,14.23a1.632,1.632,0,0,0,.3,1.905l1.154,1.154a1.638,1.638,0,0,0,1.893.3,6.039,6.039,0,0,0,2.087.867,1.632,1.632,0,0,0,1.55,1.126h1.632a1.632,1.632,0,0,0,1.55-1.128,6.044,6.044,0,0,0,2.087-.862,1.637,1.637,0,0,0,1.892-.3l1.154-1.154a1.652,1.652,0,0,0,.3-1.91,9.862,9.862,0,0,0,.863-2.071,1.632,1.632,0,0,0,1.133-1.55V8.976A1.632,1.632,0,0,0,18.451,7.426Zm-.5,3.183a.8.8,0,0,0-.14.012c-.2.034-.684.2-.907,1a7.955,7.955,0,0,1-.756,1.84c-.467.812-.228,1.281-.011,1.525L14.987,16.14a.9.9,0,0,0-.078-.069A1.23,1.23,0,0,0,13.4,16.2a4.42,4.42,0,0,1-1.738.7,1.209,1.209,0,0,0-1.04.937.816.816,0,0,0-.009.118H8.976a.816.816,0,0,0-.009-.118A1.207,1.207,0,0,0,7.929,16.9a4.418,4.418,0,0,1-1.739-.7,1.244,1.244,0,0,0-1.514-.126.882.882,0,0,0-.077.069L3.48,14.949c.183-.207.421-.676-.047-1.489a8,8,0,0,1-.756-1.84c-.222-.8-.708-.965-.906-1a.8.8,0,0,0-.14-.012V8.976a.758.758,0,0,0,.122-.01c.207-.031.711-.192.924-1a7.29,7.29,0,0,1,.741-1.817c.507-.868.231-1.345.026-1.546L4.611,3.457c.14.133.663.525,1.545-.045a5.964,5.964,0,0,1,1.8-.734c.97-.242,1.03-.877,1.025-1.045l1.632-.021c0,.189.055.825,1.024,1.071a5.981,5.981,0,0,1,1.8.734c.881.571,1.4.179,1.556.033L16.142,4.6c-.209.206-.485.682.021,1.55a7.3,7.3,0,0,1,.742,1.818c.213.816.716.974.924,1a.758.758,0,0,0,.124,0ZM10.608,7.344a.816.816,0,1,1-.816-.816A.816.816,0,0,1,10.608,7.344Zm1.632,1.632a.816.816,0,1,1-.816.816A.816.816,0,0,1,12.241,8.976Zm-4.08.816a.816.816,0,1,1-.816-.816A.816.816,0,0,1,8.16,9.792Zm2.448,2.448a.816.816,0,1,1-.816-.816A.816.816,0,0,1,10.608,12.241Z" fill="#fff"/>
</svg>
