<svg xmlns="http://www.w3.org/2000/svg" width="58.618" height="58.717" viewBox="0 0 58.618 58.717">
  <path id="llamada-telefonica" d="M56.207,26.908a2.446,2.446,0,0,1-2.446-2.446A19.588,19.588,0,0,0,34.193,4.895a2.446,2.446,0,0,1,0-4.892,24.487,24.487,0,0,1,24.46,24.46A2.446,2.446,0,0,1,56.207,26.908Zm-7.338-2.446A14.676,14.676,0,0,0,34.193,9.787a2.446,2.446,0,0,0,0,4.892,9.784,9.784,0,0,1,9.784,9.784,2.446,2.446,0,1,0,4.892,0Zm5.34,29.753,2.226-2.566a7.583,7.583,0,0,0,0-10.706c-.076-.076-5.961-4.6-5.961-4.6A7.583,7.583,0,0,0,40,36.355l-4.662,3.928A31.27,31.27,0,0,1,18.385,23.3L22.3,18.651a7.583,7.583,0,0,0,.017-10.474S17.783,2.3,17.707,2.224A7.539,7.539,0,0,0,7.126,2.111L4.313,4.557C-12.3,23.836,23.48,59.345,43.4,58.706a15.055,15.055,0,0,0,10.814-4.491Z" transform="translate(-0.035 0.002)" fill="#ffc107"/>
</svg>
