<svg xmlns="http://www.w3.org/2000/svg" width="15.105" height="20.141" viewBox="0 0 15.105 20.141">
  <g id="Grupo_4236" data-name="Grupo 4236" transform="translate(-1262.97 -14.93)">
    <path id="Trazado_3232" data-name="Trazado 3232" d="M11.035,10.07A5.035,5.035,0,1,0,6,5.035a5.035,5.035,0,0,0,5.035,5.035Zm0-8.392A3.357,3.357,0,1,1,7.678,5.035,3.357,3.357,0,0,1,11.035,1.678Z" transform="translate(1259.487 14.93)" fill="#6c757d"/>
    <path id="Trazado_3233" data-name="Trazado 3233" d="M10.553,14A7.561,7.561,0,0,0,3,21.553a.839.839,0,0,0,1.678,0,5.874,5.874,0,1,1,11.749,0,.839.839,0,0,0,1.678,0A7.561,7.561,0,0,0,10.553,14Z" transform="translate(1259.97 12.679)" fill="#6c757d"/>
  </g>
</svg>
