<svg xmlns="http://www.w3.org/2000/svg" width="14.688" height="19.585" viewBox="0 0 14.688 19.585">
  <path id="documento-firmado" d="M16.493,2.548,15.142,1.195A4.054,4.054,0,0,0,12.256,0H7.08A4.085,4.085,0,0,0,3,4.08V15.5a4.085,4.085,0,0,0,4.08,4.08h6.528a4.085,4.085,0,0,0,4.08-4.08V5.432a4.054,4.054,0,0,0-1.2-2.885ZM15.339,3.7a2.393,2.393,0,0,1,.309.379h-2.04V2.04a2.53,2.53,0,0,1,.379.31Zm.717,11.8a2.448,2.448,0,0,1-2.448,2.448H7.08A2.448,2.448,0,0,1,4.632,15.5V4.08A2.448,2.448,0,0,1,7.08,1.632h4.9V4.08a1.632,1.632,0,0,0,1.632,1.632h2.448Zm-2.448-8.16a.816.816,0,0,1,0,1.632H7.08a.816.816,0,0,1,0-1.632Zm.816,4.08a.816.816,0,0,1-.816.816H7.08a.816.816,0,0,1,0-1.632h6.528A.816.816,0,0,1,14.425,11.425Zm-.157,2.785a.816.816,0,0,1-.177,1.138,5.275,5.275,0,0,1-2.82.974,2.654,2.654,0,0,1-1.632-.571c-.268-.184-.37-.245-.571-.245a3.224,3.224,0,0,0-1.495.648.816.816,0,0,1-.991-1.3,4.783,4.783,0,0,1,2.489-.984,2.469,2.469,0,0,1,1.495.535,1.1,1.1,0,0,0,.705.282,3.742,3.742,0,0,0,1.858-.66.816.816,0,0,1,1.139.181Z" transform="translate(-3)" fill="#fff"/>
</svg>
