<svg xmlns="http://www.w3.org/2000/svg" width="16" height="15.99" viewBox="0 0 16 15.99">
  <g id="home-free-icon-font" transform="translate(-33 65.979)">
    <path id="Trazado_3223" data-name="Trazado 3223" d="M15.414,6.053,10.357,1A3.339,3.339,0,0,0,5.643,1L.586,6.053A1.985,1.985,0,0,0,0,7.467v6.545a2,2,0,0,0,2,2H14a2,2,0,0,0,2-2V7.467A1.985,1.985,0,0,0,15.414,6.053ZM10,14.678H6V12.056a2,2,0,1,1,4,0Zm4.667-.667a.667.667,0,0,1-.667.667H11.333V12.056a3.333,3.333,0,1,0-6.667,0v2.623H2a.667.667,0,0,1-.667-.667V7.467A.672.672,0,0,1,1.529,7L6.585,1.94a2.005,2.005,0,0,1,2.829,0L14.471,7a.672.672,0,0,1,.2.469Z" transform="translate(33 -66)" fill="#fabe9a"/>
  </g>
</svg>
