<svg xmlns="http://www.w3.org/2000/svg" width="20.912" height="20.912" viewBox="0 0 20.912 20.912">
  <path id="lapiz" d="M19.986,1.015a3.171,3.171,0,0,0-4.481,0L1.281,15.239A4.345,4.345,0,0,0,0,18.33v1.8A.875.875,0,0,0,.875,21h1.8a4.343,4.343,0,0,0,3.091-1.28L19.986,5.5a3.171,3.171,0,0,0,0-4.48ZM4.525,18.483a2.643,2.643,0,0,1-1.855.768H1.749V18.33a2.606,2.606,0,0,1,.769-1.855L13.312,5.681l2.011,2.011ZM18.748,4.259,16.557,6.451,14.545,4.444l2.192-2.192a1.421,1.421,0,0,1,2.007,2.011Z" transform="translate(0 -0.088)" fill="#138496"/>
</svg>
