<?xml version="1.0" encoding="utf-8"?>
<!-- Generator: Adobe Illustrator 26.2.1, SVG Export Plug-In . SVG Version: 6.00 Build 0)  -->
<svg version="1.1" id="Layer_1" xmlns="http://www.w3.org/2000/svg" xmlns:xlink="http://www.w3.org/1999/xlink" x="0px" y="0px"
	 viewBox="0 0 88.93 180.23" style="enable-background:new 0 0 88.93 180.23;" xml:space="preserve">
<style type="text/css">
	.st0{fill:#FFFFFF;}
</style>
<g>
	<g>
		<path class="st0" d="M0,134.69h43.1v-43.1H0V134.69z M13.63,99.06c1.8-0.34,4.14-0.6,7.13-0.6c3.68,0,6.36,0.85,8.07,2.39
			c1.58,1.37,2.56,3.46,2.56,6.02c0,2.6-0.77,4.65-2.26,6.15c-1.96,2.08-5.16,3.16-8.79,3.16c-1.11,0-2.14-0.04-2.99-0.25v11.53
			h-3.72V99.06z"/>
		<path class="st0" d="M27.64,107.26c0-3.85-2.69-5.68-6.79-5.68c-1.62,0-2.86,0.17-3.5,0.3v11.18c0.81,0.22,1.88,0.3,3.07,0.3
			C24.95,113.36,27.64,111.14,27.64,107.26z"/>
		<path class="st0" d="M88.88,91.58H45.76v43.1h43.12V91.58z M78.14,127.53h-3.76l-9.14-14.6c-2-3.21-3.93-6.5-5.34-9.61l-0.13,0.04
			c0.22,3.63,0.26,7.08,0.26,11.87v12.3h-3.51V98.75h4.11l9.18,14.56c2.1,3.37,3.8,6.36,5.12,9.35l0.13-0.04
			c-0.34-3.84-0.43-7.34-0.43-11.79V98.75h3.5V127.53z"/>
		<path class="st0" d="M0,180.23h43.1v-43.1H0V180.23z M10.93,144.3h3.76v17.08c0,6.41,2.86,9.15,6.7,9.15c4.22,0,7-2.82,7-9.15
			V144.3h3.76v16.83c0,8.83-4.66,12.42-10.89,12.42c-5.9,0-10.34-3.33-10.34-12.3V144.3z"/>
		<path class="st0" d="M76.26,157.96c0.04-6.87-3.8-11.1-11.66-11.1c-1.92,0-3.37,0.17-4.35,0.38V170c0.93,0.17,2.3,0.17,3.76,0.17
			C71.95,170.22,76.26,165.73,76.26,157.96z"/>
		<path class="st0" d="M45.76,180.23h43.13v-43.1H45.76V180.23z M56.49,144.51c2.31-0.35,5-0.6,7.95-0.6c5.34,0,9.14,1.2,11.66,3.54
			c2.6,2.35,4.09,5.72,4.09,10.38c0,4.69-1.49,8.54-4.14,11.19c-2.74,2.69-7.18,4.14-12.77,4.14c-2.69,0-4.87-0.08-6.79-0.34V144.51
			z"/>
		<path class="st0" d="M43.65,60.11l0.12-0.18l-0.37,0.1c-4.62-0.32-8.71-1.96-12.09-5.22l-0.04,0.14l-2.44,2.45
			c3.7,3.2,7.87,5.26,12.63,5.91c0.76,0.13,1.62,0.06,2.36,0.28l-0.18-0.28V60.11z"/>
		<path class="st0" d="M45.78,49.59c0.31,0.06,0.09,0.39,0.32,0.51c0.49-0.15,0.86,0.42,1.25,0.06c-0.02-0.56,0.61-0.51,0.95-0.65
			c0.54-0.32,1.14-0.75,1.08-1.46l-0.08-0.11c-0.37,0-0.56,0.28-0.83,0.51c-0.33,0.19-0.5-0.35-0.77-0.23
			c0.01,0.06,0.07,0.08,0.12,0.11c0.07,0.08,0.09,0.26,0,0.34c-0.41,0.37-0.6-0.18-0.97-0.14v0.14c0.01,0.08-0.03,0.21-0.14,0.17
			c-0.24-0.39-0.73-0.25-0.96-0.59c-0.16-0.08-0.3,0.02-0.4,0.12c-0.08,0.18-0.46-0.02-0.37,0.28c-0.29,0.11-0.33,0.43-0.54,0.62
			c-0.37-0.06-0.53,0.35-0.88,0.34c0.04,0.07,0,0.19,0.11,0.2c0.21,0.1,0.42,0.12,0.69,0.08C44.69,49.33,45.28,49.8,45.78,49.59z"/>
		<path class="st0" d="M26.7,41.83l0.26,2.18c0.11,0.84,0.48,1.65,0.45,2.48c0.13-0.18,0.05-0.53,0.37-0.57
			c-0.13-0.26,0.25-0.48,0.04-0.71c0.1-0.57,0.18-1.15,0.67-1.56c0.6-0.02,0.65-0.82,1.25-0.85c0.31-0.01,0.5,0.4,0.63,0.55
			c-0.38-0.46-0.36-1.22-0.26-1.74l-0.26,0.12c-1.1-0.02-2.25,0.07-3.3-0.08L26.7,41.83z"/>
		<path class="st0" d="M31.31,28.91l-1.28,1.62c-2.1,2.88-3.09,6.21-3.39,9.84l3.25-0.06l0.31,0.12c-0.13-0.08-0.1-0.23-0.14-0.34
			c0.26-3.38,1.45-6.39,3.78-8.9c-0.9-0.78-1.74-1.61-2.5-2.5L31.31,28.91z"/>
		<path class="st0" d="M54.02,31.98l-0.06,0.14c-1.09,1.14-2.29,2.31-3.34,3.47c0.07,0.14,0.19,0.27,0.32,0.34
			c0.05-0.29,0.2-0.54,0.22-0.83c0.28-0.39,0.71-0.14,1.08-0.06c0.57-0.13,1.1,0.13,1.69,0.12c0.43,0.21,0.46,0.76,0.86,0.97
			c0.11,0.15,0.02,0.33-0.12,0.45c0.12,0.89,0.54-0.24,1-0.02c0.19,0.07,0.43,0.05,0.57,0.25c0.07,0.37,0.52,0.3,0.55,0.65
			c-0.04,0.18-0.23,0.22-0.35,0.32c0.11,0.35-0.37,0.58-0.2,0.96c0.69,0.13,0.71-0.67,1.03-1.02c-0.18-0.62-0.31-1.24-0.66-1.79
			c-0.39-0.08-0.63-0.54-1.02-0.63c-0.76-0.3,0.12-0.77,0.02-1.22C55.21,33.33,54.57,32.65,54.02,31.98z"/>
		<path class="st0" d="M58.46,44.58c-0.5,1.58-1.08,3.14-2.08,4.53c-0.39,0.5-0.77,1.19-1.28,1.45l1.08,0.95
			c0.06-0.06,0.03-0.15,0.04-0.24c0-0.14,0.07-0.31,0.25-0.28c0.52-0.01,0.53,0.54,0.83,0.83c-0.06,0.45,0.33,0.8,0.2,1.22
			c2.99-3.15,4.48-7.02,4.75-11.3l0.17-0.19c-1.07,0.11-2.19,0.04-3.29,0.05l-0.26-0.08c0.07,0.72-0.12,1.42-0.17,2.13l0.39,0.43
			c0.11,0.17,0.07,0.42-0.08,0.55C58.84,44.72,58.63,44.71,58.46,44.58z"/>
		<path class="st0" d="M45.82,36.61c0.27,0.15,0.43-0.13,0.65-0.19c0.33,0.04,0.59,0.32,0.8,0.53c0.21,0.09,0.41-0.04,0.6-0.11
			c0.13-0.98,1.37-0.84,1.73-1.77l-0.23,0.08c-0.09-0.13-0.33-0.07-0.32-0.29c0.2-0.19,0.46-0.49,0.71-0.57
			c-1.07-0.66-2.17-1.23-3.38-1.54c-0.48-0.11-0.98-0.12-1.42-0.29c0.23,0.68,0.02,1.67,0.17,2.46l0.85,0.28
			c0.25-0.42,0.8-0.5,1.03-0.89c0.16-0.13,0.33,0,0.45,0.14c0.04,0.32-0.05,0.64-0.14,0.95C47.01,36.06,46.24,36.15,45.82,36.61z"/>
		<path class="st0" d="M54.31,55.85l0.17-0.23c0.71-0.56,1.48-1.08,2.11-1.77h0.08c-0.14-0.05-0.32,0.1-0.49,0.02
			c-0.33-0.15-0.39-0.45-0.39-0.79l-1.46-1.5l-0.08-0.23c-0.11,0.29-0.32,0.46-0.54,0.68c0.01,0.19-0.06,0.47,0.17,0.6
			c0.47,0.15,1.09,0.46,1.2,1.02c-0.19,0.52-1.19,1-0.57,1.57C54.71,55.5,54.22,55.61,54.31,55.85z"/>
		<path class="st0" d="M31.53,38.66c-0.13,0.57-0.06,1.23-0.28,1.77c0.41-0.19,1.02-0.12,1.48-0.06c-0.27-0.14-0.05-0.49-0.2-0.68
			c-0.03-0.3-0.08-0.66,0.2-0.85c-0.03-0.49,0.48-0.74,0.53-1.17c0.13-0.5,0.7-0.17,0.97-0.43c0.18-0.1,0.02-0.26,0.02-0.39
			c0.24-0.32,0.6-0.31,0.89-0.49c0.2-0.31,0.46-0.64,0.79-0.83c0.71,0.03,0.72-0.97,1.4-1c-0.93-0.7-1.8-1.64-2.62-2.44
			C33.09,34.05,31.97,36.21,31.53,38.66z"/>
		<path class="st0" d="M37.65,43.64c-0.12-0.06-0.13-0.05-0.23,0.06c-0.06,0-0.13,0.01-0.18-0.02c0-0.68-0.76-0.27-1.05-0.63
			c0.33,0.62,0.51,1.32,0.85,1.93c0.21,0.54,0.69,0.97,0.9,1.51c0.23-0.43,0.68-0.77,1-1.16c0.02-0.18-0.01-0.33-0.11-0.46
			c-0.11-0.25-0.01-0.6-0.2-0.82c-0.31,0.11,0.11,0.42-0.02,0.59c-0.13,0.08-0.27-0.02-0.28-0.14c-0.27-0.05-0.49-0.29-0.57-0.53
			C37.99,43.82,37.71,43.76,37.65,43.64z"/>
		<path class="st0" d="M34.36,26.29c-0.74,0.51-1.41,1.17-2.17,1.62c0.88,0.56,1.6,1.48,2.39,2.21l0.08,0.23
			c2.02-1.93,4.47-3.06,7.11-3.6c0.63-0.06,1.25-0.27,1.87-0.14c-0.05-1.13-0.14-2.3-0.02-3.41C40.19,23.39,37.11,24.44,34.36,26.29
			z"/>
		<path class="st0" d="M30.56,53.96c-0.4-0.28-0.76-0.75-1.1-1.14c-0.39-0.11-0.79-0.38-1-0.76c-0.12-0.13-0.01-0.37-0.14-0.46
			l-0.14,0.18c-0.41,0.2-0.57-0.23-0.85-0.4c-0.37-0.2-0.19-0.9-0.69-0.77c-0.19-0.01-0.25-0.22-0.37-0.34
			c-0.46,0.05-0.58-0.46-0.83-0.71c-0.05,0.11,0,0.25-0.14,0.32c-0.47,0.11-0.64-0.48-0.96-0.71c-0.08,0.04-0.14,0.13-0.26,0.11
			c-0.28-0.25-0.47-0.6-0.49-1c-0.39-0.44-0.21-1.14-0.14-1.67c0.07-0.14,0.27-0.23,0.24-0.4c0.11-0.25,0.37-0.27,0.62-0.29
			c0.1,0.05,0.19,0.14,0.24,0.22c0.15-0.1,0.5,0.01,0.37-0.33c0.2-0.18,0.5-0.24,0.77-0.29c0.19,0.24,0.28,0.51,0.53,0.74L26.05,46
			c-0.29-1.16-0.51-2.35-0.57-3.6c0.01-0.07-0.16-0.1-0.06-0.18l0.02,0.04c0.01-0.26-0.01-0.49,0.04-0.66l-0.32,0.12l-3.29-0.02
			c0.19,3.79,1.2,7.24,2.9,10.41c0.84,1.56,2.08,2.97,3.15,4.43l2.36-2.44L30.56,53.96z"/>
		<path class="st0" d="M43.14,49.31c0.08-0.32-0.05-0.73,0.12-1c0.12-0.26,0.44-0.25,0.68-0.2c0.14-0.01,0.23-0.19,0.14-0.31
			c-0.34-0.07-0.19-0.45-0.31-0.66c0.01-0.12,0.21-0.1,0.17-0.25c-0.24-0.19,0.12-0.4-0.08-0.61c0.06-0.04,0.1-0.11,0.16-0.15
			c-0.72,0.3-1.48-0.13-2.12-0.42c-0.31-0.18-0.76-0.36-0.83-0.74c-0.51,0.83-1.48,1.59-2.19,2.36
			C40.14,48.38,41.56,49.03,43.14,49.31z"/>
		<path class="st0" d="M33.22,41.65l-0.09,0.63c-0.14,0.37-0.6,0.09-0.82,0.34c-0.15,0.24,0.01,0.49,0.14,0.67
			c-0.33,0.76,0.75,1,0.73,1.68c0.33,0.43-0.05,1.04,0.43,1.42c0.1,0.77-0.11,1.81,0.57,2.42l0.12,0.74
			c0.14,0.51-0.6,0.38-0.51,0.83c0.14-0.07,0.18,0.12,0.19,0.17v-0.02c0.91-1.05,1.97-2.17,3.05-3.11l-0.45-0.45
			c-0.84-1.26-1.51-2.6-1.83-4.07l-0.34-0.18c-0.01,0.38-0.19,0.68-0.16,1.06l-0.12,0.14c-0.25-0.01-0.4-0.21-0.61-0.34
			c-0.05-0.13-0.18-0.34,0.02-0.45c0.12-0.01,0.2,0.02,0.29,0.08c0.11-0.13,0.06-0.32,0.12-0.49c0.04-0.28-0.21-0.54-0.03-0.79
			c0.22-0.02,0.39,0.25,0.49,0.4c0.23,0.07,0.4-0.12,0.59-0.2c0-0.2,0.28-0.47-0.02-0.59c0.17-0.46,0.05-0.95-0.02-1.4
			c-0.13-0.39-0.57-0.32-0.89-0.28c-0.96,0.31,0.16,1.03-0.08,1.62C33.82,41.83,33.47,41.51,33.22,41.65z"/>
		<path class="st0" d="M53.45,48.59c0.05,0.39-0.43,0.57-0.37,0.96c-0.15,0.18-0.42,0.2-0.65,0.2c-0.94-0.36-1.92-0.58-2.97-0.68
			c-0.1,0.04-0.16,0.12-0.14,0.23c0.43,0.22,0.95,0.23,1.4,0.42c0.4,0.11,0.68,0.6,1.19,0.45c0.43-0.24,1.14,0.14,1.43-0.31
			c-0.05-0.44,0.33-0.76,0.52-1.14L54,48.7c0.24,0.25,0.23,0.62,0.33,0.89c0.33-0.36,0.59-0.75,0.89-1.11
			c0.78-1.14,1.45-2.36,1.73-3.66c-0.32,0.01-0.64,0.07-0.94,0.17c-0.34-0.02-0.76,0.18-1.06-0.06c-0.11-0.09-0.18,0.05-0.17,0.14
			c-0.12,0.18-0.24,0.4-0.51,0.32c-0.21-0.1-0.21-0.32-0.29-0.49c0.01,0.13-0.04,0.25-0.06,0.37c-0.25,0.26-0.33,0.51-0.51,0.79
			c-0.25,0.27-0.65,0.18-0.91,0.4c-0.05,0.57-0.68,0.45-1.03,0.63c-0.03,0.07,0.06,0.08,0.09,0.14c0.17,0.05,0.39,0.05,0.51-0.12
			c0.5,0.13,0.39-0.5,0.68-0.71c0.25-0.04,0.49-0.25,0.75-0.08c0.26,0.32,0.32,0.78,0.28,1.2C53.51,47.8,53.65,48.26,53.45,48.59z"
			/>
		<path class="st0" d="M31.99,43.47c0.04-0.21-0.29-0.27-0.25-0.49c0.23-0.44,0.01-1.15,0.59-1.34c-0.41,0.07-0.78,0.15-1.14-0.11
			l0.18,0.28c0.02,0.78,0.33,1.53,0.17,2.32C31.66,43.92,31.7,43.62,31.99,43.47z"/>
		<path class="st0" d="M43.36,55.5c-2.88-0.14-5.41-1.2-7.65-2.87c0.07,0.28,0.45,0.46,0.35,0.82c-0.2,0.32-0.62,0.33-0.95,0.32
			c-0.67-0.11-1.17,0.4-1.81,0.47c-0.58,0.18-0.78-0.53-1.32-0.47c3.3,2.88,7.06,4.68,11.47,4.92l0.33,0.23l-0.14-0.4v-3.13
			L43.36,55.5z"/>
		<path class="st0" d="M40.33,44.18l-0.4-0.2c-0.07,0.3-0.27,0.56-0.49,0.77l0.04,0.02C39.76,44.58,39.96,44.21,40.33,44.18z"/>
		<path class="st0" d="M41.32,51.07c0.26-0.28,0.56-0.46,0.89-0.58c-1.05,0.21-1.98-0.54-2.88-0.96c-0.51-0.38-1.17-0.69-1.48-1.26
			c-0.7,0.85-1.53,1.74-2.36,2.42c0.37,0.02,0.57,0.43,0.88,0.6c1.78,1.48,4,2.2,6.06,2.7l-0.57-0.26
			c-0.43-0.49-1.03-1.06-1.06-1.73C41.23,51.86,41.18,51.39,41.32,51.07z"/>
		<path class="st0" d="M43.65,32.58c-1.91,0.25-3.66,0.9-5.06,2.38h0.26c0.28,0.28,0.75,0.22,0.96,0.6c0.11,0.21-0.2,0.19-0.19,0.37
			c0.06,0.05,0.14,0.06,0.19,0.14c0.22,0.08,0.18-0.13,0.26-0.23c0.3-0.3,0.34,0.29,0.63,0.29c0.2-0.13,0.48-0.14,0.63,0.08
			c0.19-0.17,0.59-0.01,0.65-0.32c0.37-0.39,0.17-1,0.71-1.24c0.19,0.11-0.01,0.28,0.06,0.45c0.37,0.15,0.78-0.31,1.08,0.06
			C43.56,34.39,43.62,33.43,43.65,32.58z"/>
		<path class="st0" d="M43.77,37.89c-0.35,0.59-0.95,0.72-1.5,0.89c-0.15,0.19-0.12,0.6-0.48,0.57c-0.12,0.26-0.52,0.42-0.37,0.79
			c-0.19,0.4-0.09,0.93-0.2,1.36c-0.7,0.44-0.49-0.58-0.85-0.8l-0.12,0.2c-0.14,0.04-0.24-0.05-0.33-0.14
			c-0.11-0.04-0.29-0.07-0.38,0.02c-0.16,0.26-0.39,0.47-0.33,0.83c-0.07,0.21-0.43,0.14-0.38,0.37c0.39-0.01,0.82-0.08,1.19-0.17
			c0.27,0.07,0.5-0.13,0.77-0.14c0.09,0.05,0.2,0.14,0.17,0.29h0.1c0.19-0.14,0.27-0.36,0.19-0.57c0.02-0.25,0.3-0.25,0.46-0.32
			c0.15,0.07,0.06,0.23,0.08,0.34c0.53,0.2-0.13,0.59-0.2,0.88c-0.14,0.23,0,0.74-0.45,0.66c-0.08-0.02-0.14-0.11-0.12-0.2h-0.06
			c-0.01,0.19,0.13,0.45,0.32,0.53c0.33-0.27,0.34-0.73,0.82-0.79c0.25-0.26-0.11-0.66,0.26-0.88c0.62-0.01,1.28-0.27,1.77,0.23
			c-0.04,0.21-0.12,0.31,0.06,0.49c-0.12,0.27-0.2,0.57-0.43,0.79c0.06,0.15,0.01,0.34-0.12,0.45c-0.17,0.72-1,0.38-1.48,0.63
			c0.75,0.57,1.65,0.78,2.62,0.71c0.51-0.02,0.29-0.65,0.55-0.94c0.16-0.83,0.93-0.26,1.39-0.49c0.18-0.36,0.36-0.7,0.4-1.1
			c-0.29-0.19-0.42-0.54-0.32-0.89c-0.2-0.27-0.18-0.77-0.62-0.82c-0.07-0.1-0.01-0.21,0.05-0.28c-0.01-0.26,0.25-0.34,0.32-0.55
			c-0.27-0.18-0.2-0.57-0.18-0.79c-0.47,0.13-0.51-0.47-0.86-0.6c-0.08-0.27-0.38-0.32-0.62-0.37c-0.57,0.27-0.67-0.43-1.09-0.59
			c-0.05-0.13-0.14-0.32,0-0.43c0.22-0.18,0.5-0.02,0.75-0.04l-0.2-0.11c-0.19-0.21-0.6-0.08-0.85,0
			C43.72,37.17,43.62,37.59,43.77,37.89z"/>
		<path class="st0" d="M43.48,27.89c-3.01,0.21-5.62,1.47-7.91,3.35c0.9,0.63,1.71,1.63,2.53,2.36c0.06-0.08,0.12-0.17,0.18-0.26
			c1.12-0.81,2.29-1.54,3.61-1.87c0.59-0.06,1.17-0.35,1.79-0.2c-0.13-1.12-0.13-2.35,0-3.5L43.48,27.89z"/>
		<path class="st0" d="M44.96,26.61c0.45-0.15,0.91,0.04,1.36,0.05c2.33,0.38,4.52,1.13,6.39,2.56c-0.22-0.24-0.5-0.51-0.55-0.85
			c0.04-0.05,0.09-0.06,0.14-0.05c0.02-0.37-0.37-0.56-0.43-0.89c0.06-0.07,0.14-0.14,0.26-0.11c0.4,0.38,0.75,0.79,1.05,1.22
			c0.26-0.11,0.47,0.06,0.66,0.2c0.34,0.2,0.13,0.64,0.39,0.88c0.05,0.7,0.9,1.09,0.85,1.79c0.01,0.17,0.21,0.04,0.29,0.12
			l0.71,0.88c-0.13,0.17-0.02,0.37,0.12,0.48c0.32,0.14,0.5-0.26,0.82-0.2c0.46,0.26-0.07,0.57-0.02,0.85
			c0.18,0.01,0.4-0.14,0.54,0.04c0.06,0.26-0.21,0.43-0.32,0.59c0,0.26,0.21,0.2,0.4,0.26c0.21-0.01,0.34,0.25,0.29,0.43
			c0.59,0.62-0.18,1.28,0.11,1.93c0.19,0.43-0.05,0.84-0.31,1.16c0.01,0.52-0.46,0.84-0.65,1.28l-0.61,0.12
			c-0.32,0.32,0.27,0.71-0.05,0.91l1.33,0.02l-0.14-0.14c-0.19-0.52-0.14-1.22,0.18-1.68c0.2-0.43,0.25-0.94,0.63-1.3
			c0.08-0.02,0.24-0.18,0.31,0c0.02,0.4-0.01,0.86-0.2,1.22c0.38,0.55,0.33,1.26,0.37,1.93c1.17-0.07,2.32-0.09,3.47-0.08L62.25,40
			c-0.18-2.19-0.63-4.27-1.54-6.14C60.46,33.87,60.29,34.07,60,34c-0.09-0.03-0.15-0.13-0.14-0.24c-0.47-0.45-0.77-1.04-1.3-1.44
			c-0.6,0.06-0.88-0.64-1.42-0.71c-0.49-0.2-0.15-0.98-0.86-0.77c-0.34-0.14-0.68-0.4-0.75-0.79c0-0.62-0.12-1.28-0.68-1.68
			c-0.43-0.15-0.61,0.42-1.03,0.32c-0.24-0.12-0.13-0.43-0.21-0.63c-0.08-0.18-0.28-0.31-0.25-0.55c0.56-0.74-0.68-0.72-0.41-1.45
			c-0.07-0.52-0.61-0.72-0.88-1.14c-1.84-0.83-3.68-1.4-5.76-1.65c-0.51-0.07-0.98,0.04-1.42-0.2l0.12,0.23
			C45,24.4,45.07,25.58,44.96,26.61z"/>
		<path class="st0" d="M25.5,40.4l-0.08-0.46c0.23-3.78,1.43-7.15,3.56-10.16c0.53-0.6,0.92-1.36,1.59-1.81
			c-0.77-0.72-1.58-1.56-2.38-2.36l-0.08-0.32c-3.38,3.76-5.46,8.05-6.07,12.94c-0.13,0.71-0.05,1.45-0.19,2.17
			C23.02,40.31,24.32,40.31,25.5,40.4z"/>
		<path class="st0" d="M0,0v88.92h88.93V0H0z M76.27,46.28c-1.24,1.77-2.75,3.41-3.9,5.22c0.13-1.42,0.3-3.18-0.26-4.53
			c-0.96-2.9-1.8-5.86-2.07-9.04l0.04-1.22c0.72,3.26,3.92,5.5,3.72,9.15c0.07,0.89-0.2,1.63-0.37,2.42l0.06,0.06l0.14-0.16
			c0.47-1.79,0.71-3.68,1.45-5.35c1.05-2.41,2.36-4.84,1.83-7.74C78.5,38.51,78.02,43.08,76.27,46.28z M74.31,27.83
			c2.1,2.84,2.56,7.37,1.03,10.63c-0.57,1.39-0.97,2.86-1.2,4.39c-0.11-0.26-0.13-0.62-0.22-0.91c-0.83-3.19-3.86-5.46-5.1-8.48
			c-0.39-0.98-0.72-2-0.91-3.07c1.33,2.45,4.6,3.72,5.49,6.42c0.37,0.69,0.34,1.54,0.57,2.27c0.05,0,0.1-0.03,0.1-0.08
			c-0.39-2.78-0.27-5.7,0.11-8.45c-0.03-1.49-0.17-2.94-1-4.09C73.7,26.77,73.94,27.37,74.31,27.83z M72.83,27.28
			c0.56,2.49-0.25,4.92,0.26,7.43l-0.02,0.02c-1.35-2.67-4.23-3.92-6.21-6.06c-1.15-1.27-1.65-2.81-1.93-4.44
			c1.14,2.74,4.2,3.34,5.95,5.64c0.59,0.53,0.78,1.27,1.16,1.87l0.06-0.06c-1.01-2.16-1.35-4.59-2.05-6.89
			c-0.36-1-1.05-1.98-1.99-2.61C70.35,22.67,72.35,25.08,72.83,27.28z M66.66,21.57c1.74,1.55,2.53,3.57,3.04,5.65l0.29,0.66
			c-2.53-1.81-4.81-4.25-6.42-6.83l-1.97-1.99C63.32,19.8,65.18,20.24,66.66,21.57z M33.67,19.64c3.28-1.62,6.88-2.49,10.79-2.56
			c8.95,0.01,17.49,5.26,21.38,13.54C68.3,35.37,69,41.91,67.4,47.28c-1.62,6.34-6.96,12.75-13.17,15.36
			c-7.01,3.42-16.94,2.57-23.18-1.9c-8.66-5.94-12.21-16.16-9.59-26.27C23.05,28.48,27.82,22.42,33.67,19.64z M26.82,19.4
			c-1.74,1.53-2.95,3.46-4.25,5.26c-1.16,1.43-2.64,2.38-3.96,3.61c0.71-1.47,0.74-3.23,1.74-4.57
			C21.79,21.2,24.45,20.33,26.82,19.4z M17.29,24.72c0.84-1.06,1.92-1.79,3.13-2.1c-2.35,1.61-2.19,4.51-2.94,6.91
			c-0.24,0.89-0.65,1.71-0.85,2.62l0.06,0.05c0.39-1.03,1.08-2,1.93-2.84c1.67-1.54,4.14-2.5,4.95-4.78
			c-0.03,3.16-2.68,5.65-5.2,7.43c-1.04,0.91-2.05,1.96-2.62,3.13c-0.06-0.79,0.12-1.6,0.06-2.45
			C15.53,29.93,15.33,26.77,17.29,24.72z M12.54,34.17c-0.07-2.8,1.09-5.08,2.73-7.17c0.05-0.02,0.08-0.07,0.14-0.06
			c-1.8,2.74-0.31,6.19-0.39,9.3l-0.24,3.19c0.04,0.02,0.04,0.12,0.12,0.08c0.11-0.35,0.13-0.73,0.2-1.1
			c0.42-2.57,2.66-4.4,4.61-6.18c0.41-0.46,0.78-0.94,1-1.48c-0.15,1.28-0.56,2.57-1.09,3.76c-1.52,2.96-4.33,5.39-4.84,8.78
			C14.52,40.05,12.31,37.62,12.54,34.17z M11.17,38.15c0.2-0.88,0.36-1.78,0.73-2.58c-0.72,3.7,1.77,6.37,2.58,9.58
			c0.34,1.2,0.43,2.49,0.91,3.61c0.05,0.02,0.08-0.02,0.12-0.06c-1.22-3.41,0.54-6.58,2.3-9.25c0.43-0.72,0.68-1.53,0.89-2.36
			c0.19,1.54-0.2,3.32-0.43,4.92c-0.43,2.04-1.07,3.97-1.62,5.95c-0.37,1.23-0.27,2.63-0.08,3.92l-0.18-0.14
			c-1.29-2.38-3.85-4.24-4.61-6.85C11.16,42.82,10.75,40.42,11.17,38.15z M11.05,45.38c0.29,3.92,4.5,6,6.46,9.25
			c0.46,0.66,0.86,1.4,1.48,1.95c-0.09-0.42-0.48-0.77-0.63-1.2c-0.69-1.36-0.94-2.99-0.77-4.63c0.19-2,1.03-3.87,0.71-5.97
			c1.72,3.71,1.2,8.33,2.16,12.35c0.25,0.88,0.76,1.66,1.09,2.5c-3.53-2.41-8.35-4.69-9.91-9.1C10.98,49.01,10.91,47.12,11.05,45.38
			z M13.16,54.39c1.97,4.46,6.9,4.82,10.21,7.54c0.6,0.53,1.24,1,1.93,1.32l0.04-0.04c-0.76-0.69-1.64-1.47-2.17-2.36
			c-1.93-2.69-1.25-6.46-2.7-9.35c1.32,1.58,2.51,3.21,3.3,5c1.19,2.92,1.64,6.21,4.37,8.42c-2.96-0.97-6.43-0.7-9.04-2.52
			C16.25,60.63,13.7,57.66,13.16,54.39z M18.22,62.7c3.15,3.59,8.31,2.39,12.52,3.33c0.59,0.08,1.14,0.32,1.77,0.23
			c-0.5-0.32-1.2-0.28-1.74-0.57c-3.3-1.16-3.78-4.73-5.57-7.13c2.29,1.52,4.21,3.57,6.32,5.54c1.52,1.33,3.34,1.94,5.26,2.34
			c-0.46,0.16-1.07,0.12-1.56,0.25c-3.45,0.85-7.29,2.24-10.95,1C21.87,66.93,19.42,65.05,18.22,62.7z M61.08,71.06
			c-3.55,1.33-7.27-0.06-10.05-2.17c-1.13-0.71-2.12-1.74-3.58-1.65c-0.53-0.01-1.04,0.01-1.49,0.14c2.71,1.26,5.21,2.99,7.52,5.2
			c-0.39,0.44-0.89,0.85-1.37,1.23c-2.21-2.38-4.66-4.67-7.41-6.01c-0.54,0.07-1.04,0.39-1.53,0.65c-2.23,1.41-4.43,3.22-6.09,5.44
			l-1.42-1.17c2.28-2.3,4.79-4.09,7.54-5.37c-2.7-0.85-4.47,1.41-6.52,2.56c-2.39,1.67-5.83,2.45-8.72,1.3
			c-1.55-0.59-3.06-1.46-4.19-2.87c2.28,1.56,5.67,1.73,8.25,0.71c3.47-1.5,7.08-3.41,11.26-2.5c0.65,0.01,1.29,0.66,1.91,0.11
			c3.11-0.81,6.64-0.25,9.32,1.17l2.77,1.1c2.56,0.95,5.88,0.69,8.07-0.88C64.22,69.49,62.68,70.5,61.08,71.06z M64.9,67.39
			c-3.99,1.5-8.01-0.34-11.85-0.96l-0.74-0.1v-0.02c1.83-0.42,3.61-0.96,5.07-2.28c2.15-2.06,4.05-4.18,6.44-5.81
			c-1.77,2.27-1.96,5.49-4.87,6.95c-0.72,0.47-1.64,0.56-2.38,0.91c1.07,0.02,2.04-0.36,3.1-0.46c3.91-0.62,8.39,0.01,11.13-3.32
			C69.77,64.63,67.22,66.57,64.9,67.39z M67.11,63.33c-2.04,0.54-4.22,0.72-6.2,1.4c3.35-2.88,3.17-7.34,5.4-10.73
			c0.71-0.96,1.3-1.97,2.13-2.88c-1.36,2.74-0.77,6.28-2.33,8.94c-0.6,1.06-1.47,2.07-2.42,2.9c0.31-0.01,0.58-0.28,0.85-0.46
			c2.55-2.54,5.87-3.25,8.62-5.31c1.1-0.88,2.11-2.03,2.6-3.27C75.24,58.12,71.06,62.07,67.11,63.33z M72.15,56.15
			c-1.58,1.03-3.18,1.99-4.69,3.16v-0.14c2.32-3.86,1.19-9.16,2.62-13.4l0.53-1.42c-0.29,2.64,0.86,4.88,0.77,7.54
			c-0.08,1.6-0.61,3.02-1.45,4.3h0.14c1.14-1.49,2.03-3.08,3.36-4.5c2.06-1.99,4.16-4.03,4.43-6.79
			C78.56,49.51,75.98,53.55,72.15,56.15z"/>
		<path class="st0" d="M31.48,27.08l0.06-0.16c3.46-3.15,7.49-4.88,12.11-5.1l-0.11-0.28l-0.03-2.85l0.1-0.33
			c-4.77,0.19-9,1.81-12.75,4.52c-0.72,0.5-1.36,1.26-2.1,1.68h0.11C29.79,25.24,30.68,26.23,31.48,27.08z"/>
		<path class="st0" d="M44.96,21.51c0-0.11,0.05-0.2,0.11-0.29c0.16-0.09,0.31,0.05,0.38,0.17c0.01,0.17,0.08,0.45-0.06,0.55
			c0.14,0.02,0.21-0.08,0.34-0.08c2.72,0.2,5.24,1,7.49,2.28v-0.06c0.46-0.23,1.05-0.52,1.53-0.12c0.57-0.21,0.68,0.49,1.14,0.57
			c0.56,0.33,1.19,0.95,1.26,1.6c0.11,0.21,0.44,0.37,0.49,0.59c0.38-0.81,1.14-1.38,1.79-2.07l0.4-0.17
			c-3.58-3.41-7.84-5.3-12.59-5.95c-0.76-0.13-1.59-0.06-2.32-0.28C45.07,19.18,45.03,20.46,44.96,21.51z M55.65,23.1
			c0.24,0.07,0.45,0.18,0.53,0.43c-0.06,0.27,0.25,0.5,0.06,0.71c-0.64,0.17-0.7-0.56-1.2-0.74c-0.07-0.09-0.09-0.21-0.08-0.34
			C55.19,22.89,55.4,23.34,55.65,23.1z M45.45,20.94c0.1-0.19,0.37-0.12,0.51-0.06l1.71-0.74c0.69,0.06,1.45,0.14,1.85,0.71v0.08
			c-0.43,0.35-0.97,0.64-1.54,0.4c-0.78,0.15-1.88,0.6-2.51-0.2C45.45,21.08,45.38,21,45.45,20.94z"/>
		<path class="st0" d="M48.75,28.6c-1.2-0.43-2.52-0.6-3.82-0.81l0.12,0.26l-0.02,3.21l0.31-0.06c1.97,0.27,3.78,0.9,5.33,2.17
			l0.08,0.25c0.53-0.75,1.34-1.39,1.97-2.1l0.6-0.34l-0.29-0.12C51.72,29.97,50.29,29.14,48.75,28.6z"/>
		<path class="st0" d="M57.58,54.57c-0.33,0.65-1.07,1.07-1.63,1.56c-0.77,0.77-2.03,0.94-2.42,2.05c-0.42,0.38-0.56,0.97-1.14,1.18
			c-0.21,0.57-0.82,0.53-1.16,0.95c-1,0.89-1.64-0.57-2.54-0.75l-1.82,0.32c-0.63,0-1.26,0.23-1.85,0.02c0.08,1.21,0.08,2.51,0,3.72
			l0.23-0.14c5.72-0.25,10.66-2.42,14.89-6.26l-2.5-2.38L57.58,54.57z"/>
		<path class="st0" d="M45.02,58.83c0.88-0.3,1.9-0.25,2.85-0.4c-0.19-0.07-0.38-0.12-0.52-0.31c-0.56-0.04-0.82-0.62-1-1.06
			c-0.08-0.32,0.13-0.58,0.26-0.85c-0.24-0.49-0.97-0.13-1.4-0.31c-0.12-0.1-0.2-0.24-0.37-0.26l0.18,0.26
			C45.02,56.88,45.14,57.87,45.02,58.83z"/>
		<path class="st0" d="M47.95,47.37c0.29-0.3,0.89-0.28,0.91-0.71c-0.42-0.06-0.63,0.17-0.91,0.39
			C47.92,47.15,47.79,47.31,47.95,47.37z"/>
		<path class="st0" d="M55.51,41.42l0.37,0.37c0.37,0.25,0.12,0.78,0.51,1c0.46,0.24,0.63,0.77,0.83,1.17
			c0.07-0.11,0.07-0.24,0.11-0.34c0.16-0.65,0.14-1.39,0.34-2.03C56.95,41.62,56.14,41.7,55.51,41.42z"/>
		<path class="st0" d="M63.62,41.59l-0.2-0.14l0.12,0.32c-0.19,3.95-1.51,7.43-3.76,10.53c-0.44,0.52-0.85,1.16-1.4,1.53
			c0.9,0.71,1.9,1.78,2.64,2.6l0.09-0.18c3.63-4.14,5.69-8.93,5.92-14.47l0.14-0.28L67,41.57L63.62,41.59z"/>
		<path class="st0" d="M57.95,27.83c0.25,0.06,0.32,0.35,0.49,0.53c0.87,0.46,1.09,1.39,1.85,1.91c0.42,0.89,1.41,1.58,1.45,2.59
			c1.03,2.28,1.73,4.68,1.8,7.36l-0.1,0.14c0.11,0,0.21-0.05,0.28-0.11l3.42-0.06c-0.22-0.33-0.13-0.82-0.19-1.22
			c-0.45-5.27-2.7-9.79-6.24-13.77c-0.65,0.88-1.54,1.7-2.36,2.54L57.95,27.83z"/>
	</g>
</g>
</svg>
