<?xml version="1.0" encoding="utf-8"?>
<!-- Generator: Adobe Illustrator 26.2.1, SVG Export Plug-In . SVG Version: 6.00 Build 0)  -->
<svg version="1.1" id="Layer_1" xmlns="http://www.w3.org/2000/svg" xmlns:xlink="http://www.w3.org/1999/xlink" x="0px" y="0px"
	 viewBox="0 0 88.89 180.23" style="enable-background:new 0 0 88.89 180.23;" xml:space="preserve">
<style type="text/css">
	.st0{fill:#0067B1;}
	.st1{fill:#FFFFFF;}
</style>
<g>
	<rect x="0" y="91.59" class="st0" width="43.1" height="43.1"/>
	<g>
		<path class="st1" d="M31.39,106.87c0,2.6-0.77,4.65-2.26,6.15c-1.96,2.08-5.16,3.16-8.79,3.16c-1.11,0-2.14-0.04-2.99-0.25v11.53
			h-3.72V99.06c1.8-0.34,4.14-0.6,7.13-0.6c3.68,0,6.36,0.85,8.07,2.39C30.41,102.21,31.39,104.3,31.39,106.87 M27.64,107.26
			c0-3.85-2.69-5.68-6.79-5.68c-1.62,0-2.86,0.17-3.5,0.3v11.18c0.81,0.22,1.88,0.3,3.07,0.3
			C24.95,113.36,27.64,111.14,27.64,107.26"/>
		<rect x="45.76" y="91.58" class="st0" width="43.12" height="43.1"/>
		<path class="st1" d="M60.04,127.53v-12.3c0-4.78-0.04-8.24-0.26-11.87l0.13-0.04c1.41,3.11,3.33,6.4,5.34,9.61l9.14,14.6h3.76
			V98.75h-3.5v12.09c0,4.44,0.08,7.94,0.43,11.79l-0.13,0.04c-1.32-2.99-3.02-5.98-5.12-9.35l-9.18-14.56h-4.11v28.78H60.04z"/>
		<rect x="0" y="137.12" class="st0" width="43.1" height="43.1"/>
		<path class="st1" d="M10.93,144.3v16.96c0,8.97,4.44,12.3,10.34,12.3c6.23,0,10.89-3.59,10.89-12.42V144.3h-3.76v17.08
			c0,6.33-2.78,9.15-7,9.15c-3.84,0-6.7-2.74-6.7-9.15V144.3H10.93z"/>
		<rect x="45.76" y="137.13" class="st0" width="43.13" height="43.1"/>
		<path class="st1" d="M80.19,157.83c0,4.69-1.49,8.54-4.14,11.19c-2.74,2.69-7.18,4.14-12.77,4.14c-2.69,0-4.87-0.08-6.79-0.34
			v-28.31c2.31-0.35,5-0.6,7.95-0.6c5.34,0,9.14,1.2,11.66,3.54C78.69,149.81,80.19,153.18,80.19,157.83 M76.26,157.96
			c0.04-6.87-3.8-11.1-11.66-11.1c-1.92,0-3.37,0.17-4.35,0.38V170c0.93,0.17,2.3,0.17,3.76,0.17
			C71.95,170.22,76.26,165.73,76.26,157.96"/>
		<rect class="st0" width="88.93" height="88.92"/>
		<path class="st1" d="M67.11,63.33c-2.04,0.54-4.22,0.72-6.2,1.4c3.35-2.88,3.17-7.34,5.4-10.73c0.71-0.96,1.3-1.97,2.13-2.88
			c-1.36,2.74-0.77,6.28-2.33,8.94c-0.6,1.06-1.47,2.07-2.42,2.9c0.31-0.01,0.58-0.28,0.85-0.46c2.55-2.54,5.87-3.25,8.62-5.31
			c1.1-0.88,2.11-2.03,2.6-3.27C75.24,58.12,71.06,62.07,67.11,63.33"/>
		<path class="st1" d="M76.27,46.28c-1.24,1.77-2.75,3.41-3.9,5.22c0.13-1.42,0.3-3.18-0.26-4.53c-0.96-2.9-1.8-5.86-2.07-9.04
			l0.04-1.22c0.72,3.26,3.92,5.5,3.72,9.15c0.07,0.89-0.2,1.63-0.37,2.42l0.06,0.06l0.14-0.17c0.47-1.79,0.71-3.68,1.45-5.35
			c1.05-2.41,2.36-4.84,1.83-7.74C78.5,38.51,78.02,43.08,76.27,46.28"/>
		<path class="st1" d="M74.31,27.83c2.1,2.84,2.56,7.37,1.03,10.63c-0.57,1.39-0.97,2.86-1.2,4.39c-0.11-0.26-0.13-0.62-0.22-0.91
			c-0.83-3.19-3.86-5.46-5.1-8.48c-0.39-0.98-0.72-2-0.91-3.07c1.33,2.45,4.6,3.72,5.49,6.42c0.37,0.69,0.34,1.54,0.57,2.27
			c0.05,0,0.1-0.03,0.1-0.08c-0.39-2.78-0.27-5.7,0.11-8.45c-0.03-1.49-0.17-2.94-1-4.09C73.7,26.77,73.94,27.37,74.31,27.83"/>
		<path class="st1" d="M72.83,27.28c0.56,2.49-0.25,4.92,0.26,7.43l-0.02,0.02c-1.35-2.67-4.23-3.92-6.21-6.06
			c-1.15-1.27-1.65-2.81-1.93-4.44c1.14,2.74,4.2,3.34,5.95,5.64c0.59,0.53,0.78,1.27,1.16,1.87l0.06-0.06
			c-1.01-2.16-1.35-4.59-2.05-6.89c-0.36-1-1.05-1.98-1.99-2.61C70.35,22.67,72.35,25.08,72.83,27.28"/>
		<path class="st1" d="M66.66,21.57c1.74,1.55,2.53,3.57,3.04,5.65l0.29,0.66c-2.53-1.81-4.81-4.25-6.42-6.83l-1.97-1.99
			C63.32,19.8,65.18,20.24,66.66,21.57"/>
		<path class="st1" d="M26.82,19.4c-1.74,1.53-2.95,3.46-4.25,5.26c-1.16,1.43-2.64,2.38-3.96,3.61c0.71-1.47,0.74-3.23,1.74-4.57
			C21.79,21.2,24.45,20.33,26.82,19.4"/>
		<path class="st1" d="M17.29,24.72c0.84-1.06,1.92-1.79,3.13-2.1c-2.35,1.61-2.19,4.51-2.94,6.91c-0.24,0.89-0.65,1.71-0.85,2.62
			l0.06,0.05c0.39-1.03,1.08-2,1.93-2.84c1.67-1.54,4.14-2.5,4.95-4.78c-0.03,3.16-2.68,5.65-5.2,7.43
			c-1.04,0.91-2.05,1.96-2.62,3.13c-0.06-0.79,0.12-1.6,0.06-2.45C15.53,29.93,15.33,26.77,17.29,24.72"/>
		<path class="st1" d="M12.54,34.17c-0.07-2.8,1.09-5.08,2.73-7.17c0.05-0.02,0.08-0.07,0.14-0.06c-1.8,2.74-0.31,6.19-0.39,9.3
			l-0.24,3.19c0.04,0.02,0.04,0.12,0.12,0.08c0.11-0.35,0.13-0.73,0.2-1.1c0.42-2.57,2.66-4.4,4.61-6.18c0.41-0.46,0.78-0.94,1-1.48
			c-0.15,1.28-0.56,2.57-1.09,3.76c-1.52,2.96-4.33,5.39-4.84,8.78C14.52,40.05,12.31,37.62,12.54,34.17"/>
		<path class="st1" d="M11.17,38.15c0.2-0.88,0.36-1.78,0.73-2.58c-0.72,3.7,1.77,6.37,2.58,9.58c0.34,1.2,0.43,2.49,0.91,3.61
			c0.05,0.02,0.08-0.02,0.12-0.06c-1.22-3.41,0.54-6.58,2.3-9.25c0.43-0.72,0.68-1.53,0.89-2.36c0.19,1.54-0.2,3.32-0.43,4.92
			c-0.43,2.04-1.07,3.97-1.62,5.95c-0.37,1.23-0.27,2.63-0.08,3.92l-0.18-0.14c-1.29-2.38-3.85-4.24-4.61-6.85
			C11.16,42.82,10.74,40.42,11.17,38.15"/>
		<path class="st1" d="M11.05,45.38c0.29,3.92,4.5,6,6.46,9.25c0.46,0.66,0.86,1.4,1.48,1.96c-0.09-0.42-0.48-0.77-0.63-1.2
			c-0.69-1.36-0.94-2.99-0.77-4.63c0.19-2,1.03-3.87,0.71-5.97c1.72,3.71,1.2,8.33,2.16,12.35c0.25,0.88,0.76,1.66,1.09,2.5
			c-3.53-2.41-8.35-4.69-9.91-9.1C10.98,49.01,10.91,47.12,11.05,45.38"/>
		<path class="st1" d="M13.16,54.39c1.97,4.45,6.9,4.82,10.21,7.54c0.6,0.53,1.24,1,1.93,1.32l0.04-0.04
			c-0.76-0.69-1.64-1.47-2.17-2.36c-1.93-2.69-1.25-6.46-2.7-9.35c1.31,1.58,2.51,3.21,3.3,5c1.19,2.92,1.64,6.21,4.37,8.42
			c-2.96-0.97-6.43-0.7-9.04-2.52C16.24,60.63,13.7,57.66,13.16,54.39"/>
		<path class="st1" d="M18.22,62.7c3.15,3.59,8.31,2.39,12.52,3.33c0.59,0.08,1.14,0.32,1.77,0.23c-0.5-0.32-1.2-0.28-1.74-0.57
			c-3.3-1.16-3.78-4.73-5.57-7.13c2.29,1.52,4.21,3.57,6.32,5.54c1.52,1.33,3.34,1.94,5.26,2.34c-0.46,0.17-1.07,0.12-1.56,0.25
			c-3.45,0.85-7.29,2.24-10.95,1C21.87,66.93,19.42,65.05,18.22,62.7"/>
		<path class="st1" d="M61.08,71.06c-3.55,1.33-7.27-0.06-10.05-2.17c-1.13-0.71-2.12-1.74-3.58-1.65
			c-0.53-0.01-1.04,0.01-1.49,0.14c2.71,1.26,5.21,2.99,7.52,5.2c-0.39,0.44-0.89,0.85-1.37,1.23c-2.21-2.38-4.66-4.67-7.41-6.01
			c-0.54,0.07-1.04,0.39-1.53,0.65c-2.23,1.41-4.43,3.22-6.09,5.44l-1.42-1.17c2.28-2.3,4.79-4.09,7.54-5.37
			c-2.7-0.85-4.47,1.41-6.52,2.56c-2.39,1.67-5.83,2.45-8.72,1.3c-1.55-0.59-3.06-1.46-4.19-2.87c2.28,1.56,5.67,1.73,8.25,0.71
			c3.47-1.5,7.08-3.41,11.26-2.5c0.65,0.01,1.29,0.67,1.91,0.11c3.11-0.81,6.64-0.25,9.32,1.17l2.77,1.1
			c2.56,0.95,5.88,0.69,8.07-0.88C64.22,69.49,62.68,70.5,61.08,71.06"/>
		<path class="st1" d="M64.89,67.39c-3.99,1.5-8.01-0.34-11.85-0.96l-0.74-0.1v-0.02c1.83-0.42,3.61-0.96,5.07-2.28
			c2.15-2.06,4.05-4.18,6.44-5.81c-1.77,2.27-1.96,5.49-4.87,6.95c-0.72,0.47-1.64,0.56-2.38,0.91c1.07,0.02,2.04-0.36,3.1-0.46
			c3.91-0.62,8.39,0.01,11.13-3.32C69.77,64.63,67.22,66.57,64.89,67.39"/>
		<path class="st1" d="M72.15,56.15c-1.58,1.03-3.18,1.99-4.69,3.16v-0.14c2.32-3.86,1.19-9.16,2.62-13.4l0.53-1.42
			c-0.29,2.64,0.86,4.88,0.77,7.54c-0.08,1.6-0.61,3.02-1.45,4.3h0.14c1.14-1.49,2.03-3.08,3.36-4.5c2.06-1.99,4.16-4.03,4.43-6.79
			C78.56,49.51,75.98,53.55,72.15,56.15"/>
		<path class="st1" d="M65.83,30.61c-3.89-8.27-12.43-13.52-21.38-13.54c-3.91,0.07-7.5,0.94-10.79,2.56
			c-5.84,2.79-10.62,8.84-12.21,14.84c-2.62,10.1,0.92,20.33,9.59,26.27c6.23,4.47,16.17,5.32,23.18,1.9
			c6.21-2.61,11.55-9.02,13.17-15.36C69,41.91,68.3,35.37,65.83,30.61 M66.95,38.98c0.06,0.4-0.04,0.89,0.19,1.22l-3.42,0.06
			c-0.08,0.06-0.17,0.11-0.28,0.11l0.1-0.14c-0.07-2.68-0.77-5.08-1.8-7.36c-0.04-1.02-1.02-1.7-1.45-2.59
			c-0.76-0.52-0.98-1.45-1.85-1.91c-0.17-0.18-0.24-0.47-0.49-0.53l0.4-0.08c0.82-0.84,1.71-1.66,2.36-2.54
			C64.24,29.19,66.5,33.71,66.95,38.98 M57.3,51.81c-0.3-0.29-0.31-0.84-0.83-0.83c-0.18-0.02-0.25,0.14-0.25,0.28
			c-0.01,0.08,0.02,0.18-0.04,0.24l-1.08-0.95c0.51-0.26,0.89-0.95,1.28-1.45c1-1.39,1.58-2.94,2.08-4.53
			c0.16,0.13,0.38,0.14,0.54,0.04c0.16-0.13,0.19-0.38,0.08-0.55l-0.39-0.43c0.05-0.71,0.24-1.41,0.17-2.13l0.26,0.08
			c1.1-0.01,2.23,0.06,3.29-0.05l-0.17,0.19c-0.27,4.28-1.77,8.14-4.75,11.3C57.63,52.61,57.24,52.26,57.3,51.81 M54.51,55.22
			c-0.62-0.57,0.38-1.04,0.57-1.57c-0.11-0.55-0.73-0.86-1.2-1.02c-0.23-0.13-0.15-0.41-0.17-0.6c0.21-0.21,0.43-0.39,0.54-0.68
			l0.08,0.23l1.46,1.5c0,0.35,0.06,0.64,0.39,0.79c0.17,0.07,0.35-0.07,0.49-0.02h-0.08c-0.63,0.69-1.4,1.21-2.11,1.77l-0.17,0.23
			C54.22,55.61,54.71,55.5,54.51,55.22 M47.87,36.85c-0.19,0.07-0.39,0.2-0.6,0.11c-0.21-0.21-0.46-0.5-0.8-0.53
			c-0.23,0.06-0.38,0.34-0.65,0.19c0.43-0.46,1.19-0.55,1.51-1.18c0.09-0.31,0.18-0.63,0.14-0.95c-0.12-0.14-0.3-0.27-0.45-0.14
			c-0.24,0.39-0.78,0.47-1.03,0.89l-0.85-0.28c-0.14-0.78,0.06-1.78-0.17-2.46c0.45,0.17,0.95,0.18,1.42,0.29
			c1.21,0.31,2.31,0.88,3.38,1.54c-0.25,0.08-0.51,0.38-0.71,0.57c-0.01,0.21,0.23,0.15,0.32,0.29l0.23-0.08
			C49.24,36.01,48,35.86,47.87,36.85 M48.87,46.66c-0.02,0.43-0.63,0.42-0.91,0.71c-0.17-0.06-0.04-0.23,0-0.32
			C48.24,46.83,48.45,46.6,48.87,46.66 M55.59,35.31c0.39,0.08,0.63,0.54,1.02,0.63c0.36,0.55,0.49,1.17,0.66,1.79
			c-0.32,0.36-0.34,1.15-1.03,1.02c-0.17-0.38,0.31-0.6,0.2-0.96c0.12-0.1,0.31-0.14,0.35-0.32c-0.03-0.36-0.48-0.28-0.55-0.65
			c-0.14-0.2-0.38-0.18-0.57-0.25c-0.45-0.21-0.88,0.91-1,0.02c0.14-0.12,0.22-0.3,0.12-0.45c-0.39-0.21-0.43-0.76-0.86-0.97
			c-0.58,0.01-1.12-0.25-1.69-0.12c-0.37-0.08-0.8-0.33-1.08,0.06c-0.02,0.29-0.18,0.54-0.22,0.83c-0.13-0.07-0.25-0.2-0.32-0.34
			c1.05-1.16,2.25-2.33,3.34-3.47l0.06-0.14c0.55,0.68,1.19,1.35,1.59,2.11C55.71,34.54,54.83,35.01,55.59,35.31 M57.67,41.59
			c-0.2,0.64-0.18,1.38-0.34,2.03c-0.04,0.11-0.04,0.24-0.11,0.34c-0.2-0.4-0.37-0.94-0.83-1.17c-0.39-0.21-0.14-0.75-0.51-1
			l-0.37-0.37C56.14,41.7,56.95,41.62,57.67,41.59 M52.71,31.53c-0.63,0.71-1.44,1.35-1.97,2.1l-0.08-0.25
			c-1.55-1.27-3.36-1.9-5.33-2.17l-0.31,0.06l0.02-3.21l-0.12-0.26c1.31,0.2,2.62,0.38,3.82,0.81c1.54,0.55,2.97,1.38,4.28,2.46
			l0.29,0.12L52.71,31.53z M49.46,49.08c1.04,0.1,2.03,0.32,2.97,0.68c0.24,0,0.5-0.02,0.65-0.2c-0.06-0.39,0.42-0.57,0.37-0.96
			c0.2-0.33,0.06-0.79,0.34-1.08c0.04-0.42-0.02-0.88-0.28-1.2c-0.26-0.17-0.5,0.05-0.75,0.08c-0.28,0.21-0.18,0.84-0.68,0.71
			c-0.12,0.17-0.34,0.17-0.51,0.12c-0.04-0.06-0.12-0.07-0.09-0.14c0.36-0.18,0.98-0.06,1.03-0.63c0.26-0.23,0.67-0.13,0.91-0.4
			c0.18-0.29,0.26-0.54,0.51-0.79c0.02-0.12,0.07-0.24,0.06-0.37c0.07,0.17,0.07,0.39,0.29,0.49c0.27,0.08,0.39-0.14,0.51-0.32
			c-0.01-0.09,0.06-0.24,0.17-0.14c0.3,0.24,0.71,0.04,1.06,0.06c0.29-0.09,0.62-0.15,0.94-0.17c-0.29,1.31-0.95,2.52-1.73,3.66
			c-0.29,0.37-0.56,0.76-0.89,1.11c-0.11-0.27-0.1-0.64-0.33-0.89l-0.14,0.04c-0.19,0.38-0.57,0.7-0.52,1.14
			c-0.29,0.45-1,0.07-1.43,0.31c-0.51,0.15-0.78-0.34-1.19-0.45c-0.45-0.19-0.97-0.2-1.4-0.42C49.31,49.2,49.37,49.11,49.46,49.08
			 M47.24,18.52c4.75,0.65,9.01,2.54,12.59,5.95l-0.4,0.17c-0.65,0.7-1.41,1.27-1.79,2.07c-0.05-0.23-0.38-0.38-0.49-0.59
			c-0.07-0.65-0.7-1.27-1.26-1.6c-0.46-0.08-0.57-0.78-1.14-0.57c-0.47-0.4-1.07-0.11-1.53,0.12v0.06
			c-2.26-1.28-4.78-2.08-7.49-2.28c-0.13,0-0.2,0.11-0.34,0.08c0.14-0.09,0.07-0.38,0.06-0.55c-0.07-0.12-0.21-0.26-0.38-0.17
			c-0.06,0.08-0.11,0.18-0.11,0.29c0.07-1.06,0.11-2.33-0.04-3.27C45.65,18.46,46.48,18.39,47.24,18.52 M46.33,23.28
			c2.08,0.25,3.92,0.82,5.76,1.65c0.27,0.41,0.81,0.61,0.88,1.14c-0.27,0.72,0.96,0.71,0.41,1.45c-0.04,0.24,0.17,0.37,0.25,0.55
			c0.07,0.2-0.03,0.51,0.21,0.63c0.43,0.1,0.6-0.47,1.03-0.32c0.56,0.4,0.68,1.07,0.68,1.68c0.07,0.39,0.4,0.65,0.75,0.79
			c0.7-0.21,0.37,0.57,0.86,0.77c0.55,0.07,0.82,0.77,1.42,0.71c0.54,0.4,0.83,0.99,1.3,1.44c-0.01,0.11,0.05,0.2,0.14,0.24
			c0.29,0.07,0.46-0.13,0.71-0.14c0.91,1.87,1.36,3.95,1.54,6.14l0.11,0.23c-1.15-0.01-2.3,0.01-3.47,0.08
			c-0.04-0.67,0.01-1.39-0.37-1.93c0.19-0.35,0.22-0.82,0.2-1.22c-0.07-0.18-0.23-0.02-0.31,0c-0.38,0.37-0.43,0.88-0.63,1.3
			c-0.32,0.46-0.37,1.16-0.18,1.68l0.14,0.14l-1.33-0.02c0.32-0.2-0.27-0.59,0.05-0.91l0.61-0.12c0.19-0.44,0.66-0.76,0.65-1.28
			c0.26-0.32,0.5-0.73,0.31-1.16c-0.29-0.65,0.49-1.31-0.11-1.93c0.06-0.18-0.07-0.44-0.29-0.43c-0.19-0.06-0.4,0-0.4-0.26
			c0.11-0.17,0.38-0.33,0.32-0.59c-0.14-0.18-0.37-0.02-0.54-0.04c-0.05-0.28,0.49-0.59,0.02-0.85c-0.32-0.06-0.5,0.34-0.82,0.2
			c-0.14-0.12-0.25-0.32-0.12-0.48l-0.71-0.88c-0.07-0.08-0.27,0.05-0.29-0.12c0.05-0.7-0.81-1.09-0.85-1.79
			c-0.26-0.24-0.05-0.68-0.39-0.88c-0.19-0.14-0.4-0.31-0.66-0.2c-0.3-0.43-0.64-0.84-1.05-1.22c-0.12-0.03-0.2,0.04-0.26,0.11
			c0.06,0.33,0.45,0.52,0.43,0.89c-0.06-0.01-0.11,0-0.14,0.05c0.05,0.34,0.32,0.62,0.55,0.85c-1.86-1.43-4.06-2.18-6.39-2.56
			c-0.45-0.01-0.91-0.2-1.36-0.05c0.11-1.03,0.04-2.2,0.06-3.31l-0.12-0.23C45.34,23.31,45.82,23.21,46.33,23.28 M44.33,36.93
			l0.2,0.1c-0.25,0.01-0.53-0.14-0.75,0.04c-0.14,0.11-0.05,0.3,0,0.43c0.43,0.17,0.52,0.87,1.09,0.59
			c0.24,0.05,0.53,0.09,0.62,0.37c0.34,0.13,0.39,0.74,0.86,0.6c-0.03,0.23-0.1,0.62,0.18,0.79c-0.07,0.2-0.33,0.29-0.32,0.55
			c-0.06,0.07-0.12,0.19-0.05,0.28c0.44,0.05,0.42,0.54,0.62,0.82c-0.1,0.34,0.03,0.7,0.32,0.89c-0.04,0.4-0.23,0.75-0.4,1.1
			c-0.46,0.23-1.23-0.34-1.39,0.49c-0.26,0.29-0.04,0.91-0.55,0.94c-0.97,0.07-1.87-0.14-2.62-0.71c0.48-0.25,1.31,0.1,1.48-0.63
			c0.13-0.11,0.18-0.3,0.12-0.45c0.23-0.23,0.31-0.52,0.43-0.79c-0.18-0.18-0.1-0.27-0.06-0.49c-0.49-0.5-1.15-0.24-1.77-0.23
			c-0.37,0.21-0.01,0.62-0.26,0.88c-0.47,0.06-0.49,0.52-0.82,0.79c-0.19-0.08-0.33-0.34-0.32-0.53H41c-0.02,0.1,0.04,0.18,0.12,0.2
			c0.45,0.07,0.31-0.44,0.45-0.66c0.07-0.28,0.74-0.68,0.2-0.88c-0.03-0.12,0.07-0.27-0.08-0.34c-0.17,0.07-0.44,0.07-0.46,0.32
			c0.08,0.21,0,0.43-0.19,0.57h-0.1c0.04-0.14-0.07-0.24-0.17-0.29c-0.27,0.01-0.5,0.21-0.77,0.14c-0.38,0.08-0.81,0.15-1.19,0.17
			c-0.05-0.23,0.31-0.15,0.38-0.37c-0.06-0.35,0.18-0.57,0.33-0.83c0.09-0.09,0.27-0.06,0.38-0.02c0.09,0.1,0.19,0.18,0.33,0.14
			l0.12-0.2c0.36,0.21,0.15,1.23,0.85,0.8c0.11-0.44,0.01-0.96,0.2-1.36c-0.16-0.38,0.25-0.53,0.37-0.79
			c0.37,0.04,0.33-0.38,0.48-0.57c0.56-0.17,1.15-0.3,1.5-0.89c-0.14-0.3-0.05-0.72-0.28-0.96C43.73,36.85,44.15,36.72,44.33,36.93
			 M43.79,58.92l-0.33-0.23c-4.41-0.23-8.18-2.04-11.47-4.92c0.53-0.06,0.73,0.65,1.32,0.47c0.64-0.07,1.14-0.58,1.81-0.47
			c0.33,0.01,0.75,0,0.95-0.32c0.1-0.35-0.27-0.54-0.35-0.82c2.24,1.67,4.77,2.73,7.65,2.87l0.29-0.12v3.13L43.79,58.92z
			 M31.37,41.83l-0.18-0.28c0.36,0.26,0.72,0.18,1.14,0.11c-0.58,0.19-0.37,0.9-0.59,1.34c-0.04,0.21,0.28,0.27,0.25,0.49
			c-0.29,0.14-0.32,0.45-0.45,0.67C31.7,43.35,31.39,42.61,31.37,41.83 M27.78,45.91c-0.32,0.04-0.24,0.39-0.37,0.57
			c0.03-0.83-0.34-1.63-0.45-2.48l-0.26-2.18l-0.14-0.2c1.04,0.15,2.2,0.06,3.3,0.08l0.26-0.12c-0.1,0.52-0.12,1.28,0.26,1.74
			c-0.13-0.14-0.32-0.56-0.63-0.54c-0.6,0.04-0.65,0.83-1.25,0.85c-0.5,0.42-0.57,1-0.67,1.56C28.03,45.43,27.64,45.65,27.78,45.91
			 M30.19,40.43l-0.31-0.12l-3.25,0.06c0.3-3.63,1.29-6.96,3.39-9.84l1.28-1.62l0.02-0.23c0.76,0.89,1.6,1.72,2.5,2.5
			c-2.33,2.51-3.52,5.52-3.78,8.9C30.1,40.2,30.06,40.34,30.19,40.43 M43.65,26.61c-0.62-0.13-1.24,0.08-1.87,0.14
			c-2.65,0.55-5.1,1.67-7.11,3.6l-0.08-0.23c-0.79-0.73-1.51-1.66-2.39-2.21c0.76-0.45,1.43-1.12,2.17-1.62
			c2.75-1.85,5.83-2.89,9.27-3.09C43.5,24.31,43.6,25.48,43.65,26.61 M38.34,44.49c0.01,0.12,0.15,0.23,0.28,0.14
			c0.13-0.18-0.28-0.49,0.02-0.59c0.19,0.21,0.09,0.57,0.2,0.82c0.1,0.13,0.13,0.28,0.11,0.46c-0.32,0.39-0.77,0.73-1,1.16
			c-0.21-0.53-0.69-0.96-0.9-1.51c-0.34-0.62-0.52-1.32-0.85-1.93c0.29,0.35,1.05-0.05,1.05,0.63c0.05,0.04,0.12,0.02,0.18,0.02
			c0.09-0.11,0.11-0.12,0.23-0.06c0.06,0.12,0.34,0.18,0.12,0.32C37.85,44.21,38.06,44.44,38.34,44.49 M41.86,53.74L42.43,54
			c-2.06-0.51-4.28-1.22-6.06-2.7c-0.31-0.18-0.51-0.58-0.88-0.6c0.83-0.67,1.66-1.56,2.36-2.42c0.31,0.57,0.97,0.88,1.48,1.26
			c0.9,0.42,1.83,1.17,2.88,0.96c-0.33,0.12-0.63,0.3-0.89,0.58c-0.14,0.32-0.09,0.79-0.52,0.94
			C40.83,52.68,41.43,53.25,41.86,53.74 M34.3,49.55l-0.12-0.74c-0.67-0.6-0.46-1.65-0.57-2.42c-0.48-0.38-0.1-1-0.43-1.42
			c0.01-0.69-1.07-0.92-0.73-1.68c-0.13-0.19-0.3-0.44-0.14-0.67c0.21-0.25,0.68,0.02,0.82-0.34l0.09-0.63
			c0.25-0.14,0.61,0.18,0.74-0.17c0.24-0.59-0.88-1.32,0.08-1.62c0.32-0.03,0.76-0.11,0.89,0.28c0.07,0.45,0.19,0.94,0.02,1.4
			c0.31,0.12,0.02,0.39,0.02,0.59c-0.19,0.08-0.37,0.27-0.59,0.2c-0.09-0.15-0.26-0.43-0.49-0.4c-0.18,0.25,0.07,0.51,0.03,0.79
			c-0.06,0.17-0.01,0.36-0.12,0.49c-0.08-0.06-0.16-0.09-0.29-0.08c-0.2,0.11-0.07,0.32-0.02,0.45c0.21,0.13,0.36,0.33,0.61,0.34
			l0.12-0.14c-0.03-0.38,0.15-0.68,0.16-1.06l0.34,0.18c0.32,1.47,0.98,2.81,1.83,4.07l0.45,0.45c-1.08,0.94-2.14,2.05-3.05,3.11
			v0.02c-0.01-0.05-0.05-0.24-0.19-0.17C33.69,49.93,34.44,50.06,34.3,49.55 M35.94,35.53c-0.33,0.19-0.59,0.52-0.79,0.83
			c-0.29,0.18-0.65,0.17-0.89,0.49c0,0.13,0.15,0.3-0.02,0.39c-0.27,0.26-0.84-0.07-0.97,0.43c-0.05,0.44-0.57,0.69-0.53,1.17
			c-0.28,0.19-0.24,0.56-0.2,0.85c0.15,0.19-0.07,0.53,0.2,0.68c-0.46-0.06-1.07-0.13-1.48,0.06c0.23-0.53,0.15-1.2,0.28-1.77
			c0.44-2.45,1.55-4.61,3.19-6.57c0.82,0.81,1.69,1.74,2.62,2.44C36.67,34.56,36.65,35.56,35.94,35.53 M43.26,48.31
			c-0.17,0.27-0.04,0.68-0.12,1c-1.58-0.27-3-0.93-4.27-1.97c0.71-0.77,1.68-1.53,2.19-2.36c0.07,0.38,0.52,0.56,0.83,0.74
			c0.63,0.28,1.4,0.72,2.12,0.42c-0.06,0.04-0.1,0.11-0.16,0.15c0.2,0.2-0.15,0.42,0.08,0.61c0.05,0.15-0.15,0.13-0.17,0.25
			c0.12,0.21-0.04,0.59,0.31,0.66c0.08,0.12,0,0.3-0.14,0.31C43.69,48.06,43.38,48.05,43.26,48.31 M39.44,44.75
			c0.21-0.21,0.42-0.47,0.49-0.77l0.4,0.2c-0.37,0.02-0.57,0.39-0.85,0.59L39.44,44.75z M42.75,35.11
			c-0.07-0.17,0.13-0.34-0.06-0.45c-0.54,0.25-0.34,0.85-0.71,1.24c-0.06,0.31-0.46,0.15-0.65,0.32c-0.14-0.23-0.43-0.21-0.63-0.08
			c-0.28,0-0.33-0.58-0.63-0.29c-0.08,0.1-0.04,0.31-0.26,0.23c-0.05-0.08-0.13-0.09-0.19-0.14c-0.01-0.18,0.3-0.15,0.19-0.37
			c-0.21-0.38-0.68-0.32-0.96-0.6h-0.26c1.4-1.48,3.15-2.13,5.06-2.38c-0.02,0.85-0.09,1.81,0.18,2.58
			C43.53,34.8,43.11,35.26,42.75,35.11 M43.68,31.27c-0.62-0.14-1.2,0.14-1.79,0.2c-1.33,0.33-2.49,1.07-3.61,1.87
			c-0.06,0.09-0.12,0.18-0.18,0.26c-0.82-0.72-1.62-1.73-2.53-2.36c2.29-1.89,4.9-3.14,7.91-3.36l0.2-0.12
			C43.55,28.92,43.55,30.15,43.68,31.27 M30.85,22.87c3.76-2.7,7.99-4.33,12.75-4.52l-0.1,0.33l0.03,2.85l0.11,0.28
			c-4.62,0.21-8.65,1.94-12.11,5.1l-0.06,0.17c-0.79-0.85-1.68-1.84-2.62-2.52h-0.11C29.48,24.13,30.12,23.37,30.85,22.87
			 M22.03,38.23c0.6-4.89,2.69-9.19,6.07-12.94l0.08,0.32c0.81,0.8,1.61,1.64,2.38,2.36c-0.67,0.45-1.06,1.21-1.59,1.81
			c-2.12,3.01-3.33,6.38-3.56,10.16l0.08,0.46c-1.18-0.1-2.48-0.1-3.66,0C21.98,39.68,21.9,38.95,22.03,38.23 M24.76,52.09
			c-1.7-3.17-2.71-6.61-2.9-10.41l3.29,0.02l0.32-0.12c-0.05,0.18-0.03,0.4-0.04,0.66l-0.02-0.04c-0.1,0.07,0.07,0.11,0.06,0.18
			c0.06,1.26,0.28,2.44,0.57,3.6l0.17,0.26c-0.25-0.22-0.34-0.5-0.53-0.74c-0.27,0.05-0.57,0.11-0.77,0.29
			c0.13,0.34-0.21,0.24-0.37,0.33c-0.05-0.08-0.14-0.18-0.24-0.23c-0.25,0.01-0.51,0.04-0.62,0.29c0.03,0.18-0.17,0.26-0.24,0.4
			c-0.07,0.53-0.25,1.23,0.14,1.67c0.01,0.39,0.2,0.75,0.49,1c0.12,0.02,0.18-0.07,0.26-0.11c0.32,0.24,0.49,0.82,0.96,0.71
			c0.14-0.07,0.1-0.21,0.14-0.32c0.25,0.25,0.37,0.76,0.83,0.71c0.12,0.12,0.18,0.33,0.37,0.34c0.5-0.13,0.32,0.57,0.69,0.77
			c0.29,0.18,0.44,0.61,0.85,0.4l0.14-0.18c0.13,0.1,0.02,0.33,0.14,0.46c0.2,0.38,0.61,0.65,1,0.76c0.34,0.39,0.7,0.85,1.1,1.14
			l-0.29,0.12l-2.36,2.44C26.84,55.06,25.61,53.65,24.76,52.09 M41.47,63.33c-4.77-0.65-8.94-2.72-12.63-5.91l2.44-2.45l0.04-0.14
			c3.38,3.26,7.47,4.9,12.09,5.22l0.37-0.1l-0.12,0.18v3.21l0.18,0.28C43.09,63.38,42.22,63.46,41.47,63.33 M44.33,49.9
			c-0.26,0.04-0.47,0.01-0.69-0.08c-0.11-0.01-0.07-0.13-0.11-0.2c0.35,0.01,0.51-0.4,0.88-0.34c0.21-0.19,0.25-0.51,0.54-0.62
			c-0.1-0.31,0.29-0.11,0.37-0.28c0.11-0.1,0.25-0.2,0.4-0.12c0.24,0.34,0.72,0.2,0.96,0.59c0.12,0.05,0.15-0.08,0.14-0.17v-0.14
			c0.38-0.04,0.57,0.51,0.97,0.14c0.09-0.08,0.07-0.26,0-0.34c-0.05-0.02-0.11-0.05-0.12-0.11c0.27-0.13,0.44,0.42,0.77,0.23
			c0.27-0.23,0.46-0.51,0.83-0.51l0.08,0.11c0.06,0.71-0.54,1.14-1.08,1.46c-0.34,0.14-0.97,0.09-0.95,0.65
			c-0.39,0.36-0.76-0.21-1.25-0.06c-0.23-0.12-0.01-0.45-0.32-0.51C45.28,49.8,44.69,49.33,44.33,49.9 M45.21,55.91
			c0.43,0.18,1.16-0.18,1.4,0.31c-0.13,0.27-0.34,0.53-0.26,0.85c0.18,0.44,0.44,1.02,1,1.06c0.14,0.19,0.33,0.24,0.52,0.31
			c-0.95,0.15-1.97,0.11-2.85,0.4c0.12-0.96,0-1.96,0-2.93l-0.18-0.26C45.01,55.67,45.09,55.81,45.21,55.91 M45.25,63.49l-0.23,0.14
			c0.08-1.21,0.08-2.51,0-3.72c0.59,0.2,1.22-0.02,1.85-0.02l1.82-0.32c0.9,0.18,1.54,1.64,2.54,0.75c0.34-0.42,0.95-0.38,1.16-0.95
			c0.58-0.21,0.72-0.81,1.14-1.18c0.39-1.12,1.65-1.28,2.42-2.05c0.56-0.5,1.3-0.91,1.63-1.56l0.06,0.28l2.5,2.38
			C55.91,61.07,50.97,63.24,45.25,63.49 M67.03,41.77c-0.23,5.55-2.29,10.34-5.92,14.47l-0.09,0.18c-0.75-0.82-1.74-1.89-2.64-2.6
			c0.55-0.37,0.96-1.01,1.4-1.53c2.25-3.09,3.57-6.58,3.76-10.53l-0.12-0.32l0.2,0.14l3.38-0.02l0.18-0.08L67.03,41.77z"/>
		<path class="st1" d="M54.96,23.16c-0.01,0.13,0.01,0.25,0.08,0.34c0.5,0.18,0.56,0.9,1.2,0.74c0.19-0.21-0.12-0.44-0.06-0.71
			c-0.08-0.25-0.3-0.36-0.53-0.43C55.4,23.34,55.19,22.89,54.96,23.16"/>
		<path class="st1" d="M45.47,21.14c0.63,0.81,1.72,0.35,2.51,0.2c0.57,0.24,1.12-0.05,1.54-0.4v-0.08
			c-0.4-0.57-1.16-0.65-1.85-0.71l-1.71,0.74c-0.14-0.06-0.41-0.13-0.51,0.06C45.38,21,45.45,21.08,45.47,21.14"/>
	</g>
</g>
</svg>
